<svg xmlns="http://www.w3.org/2000/svg" xmlns:xlink="http://www.w3.org/1999/xlink" version="1.1" x="0px" y="0px" viewBox="0 0 40 50" style="enable-background:new 0 0 40 40;" xml:space="preserve"><style type="text/css">
	.st0{fill:#030104;}
</style><path class="st0" d="M20.0541172,29.9763737c0.5520344,0.4144917,0.690506,0.7546329,0.7090931,0.9683838  c0.0427513,0.483263-0.5864201,0.921917-0.7332573,1.0037003c-0.1477661-0.0864315-0.7713604-0.5371666-0.7183876-1.0222874  C19.3478088,30.6194859,19.597805,30.2997875,20.0541172,29.9763737z"/><path class="st0" d="M22.1247101,29.7895756c0.6115131,0.2946033,0.8131828,0.600359,0.8745193,0.8057461  c0.1412621,0.4674644-0.367094,1.0139217-0.4934864,1.1273022c-0.1617069-0.0576191-0.8429203-0.374527-0.8903179-0.8559322  C21.5866165,30.5581474,21.757616,30.1966305,22.1247101,29.7895756z"/><path class="st0" d="M24.0763474,29.1957188c0.6505451,0.1691418,0.9079762,0.4284306,1.0092754,0.6161594  c0.2286205,0.4256439-0.147768,1.0622482-0.2481365,1.1997929c-0.1700726-0.0250931-0.889389-0.2025986-1.0325089-0.6626263  C23.7427101,30.1445866,23.7380638,29.7784233,24.0763474,29.1957188z"/><path class="st0" d="M25.8541946,28.2319832c0.670063,0.0371742,0.9739609,0.2397728,1.1105747,0.4042664  c0.3104038,0.3736,0.0669136,1.0687542-0.0037174,1.2239552c-0.1719303,0.0018597-0.9079762-0.0241623-1.1403141-0.4470177  C25.6729717,29.1408882,25.684124,28.7431259,25.8541946,28.2319832z"/><path class="st0" d="M27.4043522,26.9336796c0.5362358-0.0799236,0.9302807-0.0223045,1.172842,0.1728592  c0.3782444,0.302969,0.2760162,1.038084,0.2369843,1.2035084c-0.1663551,0.0418224-0.8968239,0.1589203-1.2072277-0.2100315  C27.4684772,27.9355202,27.32164,27.6000233,27.4043522,26.9336796z"/><path class="st0" d="M29.8643436,25.2608471c0.4312191,0.2221146,0.4748993,0.9721012,0.4683933,1.1431026  c-0.1533432,0.0762062-0.8503551,0.3438587-1.2295303,0.0436783c-0.1682129-0.1328964-0.3791752-0.4330769-0.4284306-1.1096439  C29.1896362,25.1483955,29.5901852,25.1223736,29.8643436,25.2608471z"/><path class="st0" d="M30.7686024,23.1409988c0.4730396,0.129179,0.6598396,0.8754482,0.6858616,1.04459  c-0.1301098,0.1059456-0.7657852,0.528801-1.2035103,0.3113327c-0.1914463-0.0957241-0.4572392-0.3494358-0.638464-1.0157814  C30.080883,23.1753845,30.4702816,23.0638618,30.7686024,23.1409988z"/><path class="st0" d="M30.3884983,34.9010048c-5.97015,3.8633118-14.1186981,3.6142464-17.5340633-0.5083542l3.6188927-2.4581337  c0.2825222-0.193306,0.6589088-0.1514854,0.9126225,0.1059456c2.1365776,2.1570244,6.653223,1.8075867,10.5063114-0.8103943  c3.8540192-2.6189098,5.8400421-6.6894665,4.6207314-9.4691563c-0.1440468-0.3299198-0.0473938-0.6951542,0.2369843-0.8875294  l3.5175934-2.3902912C39.4571037,23.8593864,35.75457,31.4280205,30.3884983,34.9010048z"/><path class="st0" d="M3.0182641,22.2092171c-0.7819767-2.4468899-0.3266966-5.330965,1.3315508-8.2617102  c1.9439878-3.4365053,5.3052487-6.5205984,9.463726-8.6855583c3.5755663-1.8611233,7.3702002-2.8497856,10.861949-2.8497856  c0.5686245,0,1.1296272,0.0266693,1.6801548,0.0790551c3.3403072,0.3219342,5.9567375,1.5944319,7.5140228,3.6250944  c-1.1610603-0.6695852-3.1136189-0.8143601-5.6929035-0.4009891c-3.4850807,0.5600514-7.7149944,2.0716186-11.9115696,4.2565808  C8.7054529,13.9084558,3.3078144,19.0098763,3.0182641,22.2092171z M3.5087852,23.3874207  c-1.4553719-2.7954941,4.3280163-8.6969881,12.8916588-13.1564455c4.1699066-2.1706753,8.3683872-3.6717653,11.8220387-4.2270541  c3.3498306-0.5381446,5.666235-0.0981045,6.3481998,1.212492c0.6819687,1.3096442-0.2838326,3.4584126-2.6478615,5.8957791  c-2.4364128,2.5107069-6.0738907,5.0890388-10.2437973,7.2597141C13.1153812,24.8294582,4.9651093,26.1829166,3.5087852,23.3874207z   M33.7296562,16.6553745c-1.9439888,3.4365063-5.3042984,6.5205994-9.4627743,8.6855602  c-7.9712086,4.150856-16.5939045,3.6784325-20.0713673-0.8743668c2.7888274,1.59729,10.0618763,0.0990562,17.6187611-3.8355904  c4.1965752-2.1840096,7.8607216-4.7823439,10.3180904-7.3159094c1.8182602-1.8735056,2.8193054-3.5574694,2.9374123-4.8937826  C35.8393707,10.8615093,35.3812332,13.7351065,33.7296562,16.6553745z M36.0146255,6.5144439  c-0.4758759,0.5188575-0.8230515,0.7634034-1.0486069,0.8840694c-0.0486946-0.1045928-0.0827446-0.2146626-0.1362648-0.3173509  c-0.0692291-0.132988-0.1590614-0.251987-0.2354355-0.3802133c0.1257248-0.0685182,0.4043808-0.2496657,0.8354912-0.7198877  c0.1495399-0.1619196,0.4009895-0.1714439,0.560051-0.0247641C36.1508293,6.1029778,36.1613045,6.353477,36.0146255,6.5144439z"/><text x="0" y="55" fill="#000000" font-size="5px" font-weight="bold" font-family="'Helvetica Neue', Helvetica, Arial-Unicode, Arial, Sans-serif">Created by Eduard Alexandru</text><text x="0" y="60" fill="#000000" font-size="5px" font-weight="bold" font-family="'Helvetica Neue', Helvetica, Arial-Unicode, Arial, Sans-serif">from the Noun Project</text></svg>