<svg xmlns="http://www.w3.org/2000/svg" xmlns:xlink="http://www.w3.org/1999/xlink" version="1.1" viewBox="0 0 51.353 98.67374999999998" overflow="visible" enable-background="new 0 0 51.353 78.939" xml:space="preserve" x="0px" y="0px"><g><g><path d="M42.627,35.16c-1.454,2.315-3.729,4.346-5.197,6.929c-3.506,6.165-5.804,12.552-5.804,12.354    c0-0.42,2.47-7.924,5.207-13.37c1.702-3.386,4.186-5.656,4.181-5.914C40.545,14.316,33.173,0,27.72,0    c-7.063,0-12.844,13.607-13.447,33.774c-0.007,0.246,3.139,3.355,6.192,8.016c4.446,6.783,9.337,15.891,9.331,16.253    c-0.003,0.251-4.836-7.895-10.167-15.297c-1.757-2.438-6.121-7.284-7.766-9.02c-2.264-2.39-6.962,5.276-9.421,12.049    c-3.584,9.877-2.166,23.582-2.166,23.711c0,0.424,5.814-20.561,11.452-23.213c0,0,0.798,3.129,0.985,4.805    c1.768,15.789,9.008,27.861,15.006,27.861c7.057,0,11.362-6.635,12.357-21.725c0.02-0.295,3.599-15.958,5.142-13.434    c1.824,2.984,6.128,7.26,6.134,6.799C51.355,50.436,45.186,31.089,42.627,35.16z M33.803,45.433c0,0.814-0.66,1.476-1.475,1.476    c-0.815,0-1.476-0.661-1.476-1.476v-1.243c0-0.814,0.66-1.474,1.476-1.474c0.814,0,1.475,0.66,1.475,1.474V45.433z M22.523,23.868    c0-0.815,0.66-1.475,1.475-1.475c0.815,0,1.476,0.66,1.476,1.475v1.243c0,0.815-0.66,1.475-1.476,1.475    c-0.814,0-1.475-0.66-1.475-1.475V23.868z M22.318,20.809v-1.243c0-0.815,0.66-1.475,1.476-1.475c0.814,0,1.475,0.66,1.475,1.475    v1.243c0,0.814-0.66,1.475-1.475,1.475C22.978,22.284,22.318,21.624,22.318,20.809z M24.25,27.994c0-0.814,0.66-1.475,1.475-1.475    c0.815,0,1.476,0.661,1.476,1.475v1.243c0,0.815-0.66,1.475-1.476,1.475c-0.814,0-1.475-0.66-1.475-1.475V27.994z M27.509,22.686    c0.815,0,1.476,0.66,1.476,1.475v1.243c0,0.815-0.66,1.475-1.476,1.475c-0.814,0-1.475-0.66-1.475-1.475v-1.243    c0-0.694,0.48-1.271,1.125-1.429c-0.067,0.01-0.136,0.021-0.206,0.021c-0.814,0-1.475-0.661-1.475-1.475v-1.243    c0-0.815,0.66-1.475,1.475-1.475c0.815,0,1.476,0.66,1.476,1.475v1.243c0,0.693-0.48,1.271-1.126,1.429    C27.371,22.697,27.439,22.686,27.509,22.686z M32.409,24.73c0,0.815-0.719,1.475-1.606,1.475c-0.889,0-1.607-0.66-1.607-1.475    v-1.243c0-0.815,0.719-1.476,1.607-1.476c0.888,0,1.606,0.661,1.606,1.476V24.73z M33.58,27.672v1.243    c0,0.814-0.66,1.475-1.476,1.475c-0.814,0-1.475-0.661-1.475-1.475v-1.243c0-0.815,0.66-1.475,1.475-1.475    C32.919,26.197,33.58,26.857,33.58,27.672z M31.882,20.458c0,0.815-0.66,1.476-1.476,1.476c-0.814,0-1.475-0.661-1.475-1.476    v-1.243c0-0.815,0.66-1.475,1.475-1.475c0.815,0,1.476,0.66,1.476,1.475V20.458z M24.981,32.326c0-0.815,0.66-1.475,1.476-1.475    c0.814,0,1.475,0.66,1.475,1.475v1.243c0,0.815-0.66,1.475-1.475,1.475c-0.815,0-1.476-0.66-1.476-1.475V32.326z M27.527,29.442    v-1.243c0-0.815,0.66-1.475,1.476-1.475c0.814,0,1.475,0.66,1.475,1.475v1.243c0,0.815-0.66,1.475-1.475,1.475    C28.187,30.917,27.527,30.257,27.527,29.442z M28.288,32.618c0-0.815,0.661-1.475,1.476-1.475s1.475,0.66,1.475,1.475v1.243    c0,0.815-0.66,1.476-1.475,1.476s-1.476-0.661-1.476-1.476V32.618z M30.454,36.188c0-0.815,0.66-1.475,1.476-1.475    c0.814,0,1.475,0.66,1.475,1.475v1.243c0,0.814-0.66,1.475-1.475,1.475c-0.815,0-1.476-0.661-1.476-1.475V36.188z M32.953,34.692    c-0.814,0-1.475-0.66-1.475-1.475v-1.243c0-0.815,0.66-1.476,1.475-1.476c0.815,0,1.476,0.661,1.476,1.476v1.243    C34.428,34.032,33.768,34.692,32.953,34.692z M33.965,28.886v-1.243c0-0.815,0.66-1.475,1.476-1.475    c0.814,0,1.475,0.66,1.475,1.475v1.243c0,0.814-0.66,1.475-1.475,1.475C34.625,30.361,33.965,29.701,33.965,28.886z     M35.511,24.877c0,0.814-0.66,1.475-1.476,1.475c-0.814,0-1.475-0.661-1.475-1.475v-1.243c0-0.815,0.66-1.475,1.475-1.475    c0.815,0,1.476,0.66,1.476,1.475V24.877z M34.721,20.692c0,0.815-0.563,1.475-1.256,1.475s-1.256-0.66-1.256-1.475v-1.243    c0-0.815,0.563-1.476,1.256-1.476s1.256,0.661,1.256,1.476V20.692z M32.971,16.183c0,0.815-0.66,1.475-1.475,1.475    c-0.815,0-1.476-0.66-1.476-1.475V14.94c0-0.815,0.66-1.475,1.476-1.475c0.814,0,1.475,0.66,1.475,1.475V16.183z M31.824,11.971    c0,0.815-0.66,1.475-1.476,1.475c-0.814,0-1.475-0.66-1.475-1.475v-1.243c0-0.815,0.66-1.475,1.475-1.475    c0.815,0,1.476,0.66,1.476,1.475V11.971z M29.611,15.809v1.243c0,0.814-0.66,1.475-1.475,1.475s-1.476-0.661-1.476-1.475v-1.243    c0-0.815,0.661-1.475,1.476-1.475S29.611,14.994,29.611,15.809z M28.604,12.644c0,0.815-0.66,1.475-1.475,1.475    c-0.815,0-1.476-0.66-1.476-1.475v-1.243c0-0.815,0.66-1.476,1.476-1.476c0.814,0,1.475,0.661,1.475,1.476V12.644z M26.339,15.048    v1.243c0,0.815-0.66,1.475-1.476,1.475c-0.814,0-1.475-0.66-1.475-1.475v-1.243c0-0.815,0.66-1.475,1.475-1.475    C25.679,13.573,26.339,14.233,26.339,15.048z M25.502,12.146c0,0.815-0.66,1.475-1.476,1.475c-0.814,0-1.475-0.66-1.475-1.475    v-1.243c0-0.815,0.66-1.475,1.475-1.475c0.815,0,1.476,0.66,1.476,1.475V12.146z M23.138,15.707v1.243    c0,0.815-0.66,1.475-1.475,1.475c-0.815,0-1.476-0.66-1.476-1.475v-1.243c0-0.814,0.66-1.475,1.476-1.475    C22.478,14.231,23.138,14.892,23.138,15.707z M20.454,18.45c0.814,0,1.475,0.661,1.475,1.475v1.243    c0,0.815-0.66,1.475-1.475,1.475c-0.815,0-1.476-0.66-1.476-1.475v-1.243C18.978,19.11,19.638,18.45,20.454,18.45z M19.362,24.366    c0-0.815,0.661-1.475,1.476-1.475s1.475,0.66,1.475,1.475v1.243c0,0.815-0.66,1.475-1.475,1.475s-1.476-0.66-1.476-1.475V24.366z     M20.703,28.111v1.243c0,0.814-0.66,1.475-1.475,1.475c-0.815,0-1.476-0.661-1.476-1.475v-1.243c0-0.815,0.66-1.475,1.476-1.475    C20.042,26.636,20.703,27.296,20.703,28.111z M18.455,32.414c0-0.815,0.661-1.475,1.476-1.475s1.475,0.66,1.475,1.475v1.243    c0,0.815-0.66,1.475-1.475,1.475s-1.476-0.66-1.476-1.475V32.414z M21.118,29.442v-1.243c0-0.815,0.661-1.475,1.476-1.475    s1.476,0.66,1.476,1.475v1.243c0,0.815-0.661,1.475-1.476,1.475S21.118,30.257,21.118,29.442z M21.645,32.53    c0-0.814,0.66-1.475,1.475-1.475c0.815,0,1.476,0.661,1.476,1.475v1.243c0,0.814-0.66,1.475-1.476,1.475    c-0.814,0-1.475-0.661-1.475-1.475V32.53z M24.484,36.715c0-0.815,0.66-1.475,1.475-1.475c0.815,0,1.476,0.66,1.476,1.475v1.243    c0,0.815-0.66,1.475-1.476,1.475c-0.814,0-1.475-0.66-1.475-1.475V36.715z M26.197,40.735c0-0.815,0.584-1.476,1.307-1.476    c0.722,0,1.306,0.661,1.306,1.476v1.243c0,0.814-0.584,1.476-1.306,1.476c-0.723,0-1.307-0.662-1.307-1.476V40.735z     M27.615,38.104v-1.243c0-0.815,0.563-1.475,1.256-1.475s1.256,0.66,1.256,1.475v1.243c0,0.815-0.563,1.475-1.256,1.475    S27.615,38.919,27.615,38.104z M29.201,40.397c0-0.815,0.66-1.476,1.476-1.476c0.814,0,1.475,0.661,1.475,1.476v1.243    c0,0.815-0.66,1.476-1.475,1.476c-0.815,0-1.476-0.66-1.476-1.476V40.397z M35.268,41.377c0,0.815-0.661,1.475-1.476,1.475    s-1.475-0.66-1.475-1.475v-1.243c0-0.815,0.66-1.475,1.475-1.475s1.476,0.66,1.476,1.475V41.377z M36.594,37.344    c0,0.815-0.661,1.475-1.476,1.475s-1.476-0.66-1.476-1.475v-1.243c0-0.814,0.661-1.475,1.476-1.475s1.476,0.661,1.476,1.475    V37.344z M36.202,34.692c-0.815,0-1.476-0.66-1.476-1.475v-1.243c0-0.815,0.66-1.476,1.476-1.476c0.814,0,1.475,0.661,1.475,1.476    v1.243C37.676,34.032,37.016,34.692,36.202,34.692z M39.682,35.883c0,0.469-0.607,0.849-1.356,0.849    c-0.748,0-1.355-0.38-1.355-0.849v-0.715c0-0.469,0.607-0.849,1.355-0.849c0.749,0,1.356,0.38,1.356,0.849V35.883z M39.549,31.946    v0.922c0,0.605-0.359,1.096-0.802,1.096s-0.802-0.491-0.802-1.096v-0.922c0-0.605,0.359-1.096,0.802-1.096    S39.549,31.341,39.549,31.946z M39.14,27.877l0.135,1.268c-0.04,0.874,0.054,1.479-0.762,1.479c-0.814,0-1.475-0.66-1.475-1.475    v-1.243c0-0.815,0.66-1.475,1.475-1.475C39.329,26.432,38.983,26.921,39.14,27.877z M38.759,23.663v1.243    c0,0.814-0.66,1.475-1.475,1.475c-0.815,0-1.476-0.661-1.476-1.475v-1.243c0-0.815,0.66-1.475,1.476-1.475    C38.099,22.188,38.759,22.848,38.759,23.663z M37.94,19.479v1.243c0,0.815-0.66,1.475-1.476,1.475    c-0.814,0-1.475-0.66-1.475-1.475v-1.243c0-0.815,0.66-1.476,1.475-1.476C37.28,18.003,37.94,18.664,37.94,19.479z M36.372,15.365    v1.243c0,0.815-0.66,1.475-1.476,1.475c-0.814,0-1.475-0.66-1.475-1.475v-1.243c0-0.815,0.66-1.475,1.475-1.475    C35.711,13.89,36.372,14.55,36.372,15.365z M35.013,11.226v1.243c0,0.815-0.66,1.475-1.475,1.475c-0.815,0-1.476-0.66-1.476-1.475    v-1.243c0-0.815,0.66-1.475,1.476-1.475C34.353,9.75,35.013,10.411,35.013,11.226z M31.724,5.068c0.814,0,1.475,0.661,1.475,1.475    v1.243c0,0.815-0.66,1.475-1.475,1.475c-0.815,0-1.476-0.66-1.476-1.475V6.543C30.249,5.729,30.909,5.068,31.724,5.068z     M27.82,3.09c0-0.815,0.339-1.044,1.154-1.044c0,0,1.456,0.537,1.796,1.044c0.34,0.507,0,1.243,0,1.243    c0,0.815-0.66,1.476-1.476,1.476c-0.814,0-1.475-0.661-1.475-1.476V3.09z M28.066,5.683c0.814,0,1.475,0.66,1.475,1.475V8.4    c0,0.815-0.66,1.475-1.475,1.475c-0.815,0-1.476-0.66-1.476-1.475V7.158C26.59,6.343,27.25,5.683,28.066,5.683z M27.551,2.651    v1.243c0,0.815-0.661,1.476-1.476,1.476s-1.053-0.602-1.036-1.476l-0.104-0.882C24.994,1.812,27.51,0.992,27.551,2.651z     M26.38,6.748v1.243c0,0.815-0.66,1.475-1.476,1.475c-0.814,0-1.475-0.66-1.475-1.475V6.748c0-0.815,0.66-1.475,1.475-1.475    C25.72,5.273,26.38,5.933,26.38,6.748z M24.566,2.797V4.04c0,0.815-0.66,1.475-1.476,1.475    C20.575,6.114,24.566,1.982,24.566,2.797z M21.774,5.858c0.814,0,1.475,0.66,1.475,1.475v1.243c0,0.815-0.66,1.475-1.475,1.475    c-0.815,0-1.476-0.66-1.476-1.475C20.298,8.576,21.248,5.851,21.774,5.858z M18.686,12.703c0.294-1.163,0.485-1.194,0.485-1.194    c0.606-0.831,0.766-1.533,1.357-1.524c1.018,0,1.842,0.661,1.842,1.475v1.243c0,0.815-0.824,1.475-1.842,1.475    S18.393,13.865,18.686,12.703z M17.35,16.777c0.11-0.483,0.197-0.98,0.404-1.435c0.133-0.292,0.385-0.734,0.753-0.747    c0.814,0,1.475,0.66,1.475,1.475v1.243c0,0.815-0.66,1.475-1.475,1.475c-0.507,0-0.939-0.273-1.168-0.72    C17.119,17.638,17.25,17.218,17.35,16.777z M16.515,19.827c0-0.557,0.503-1.007,1.124-1.007s1.124,0.451,1.124,1.007v0.849    c0,0.557-0.503,1.007-1.124,1.007s-1.124-0.451-1.124-1.007V19.827z M16.29,23.224c0-0.815,0.66-1.475,1.475-1.475    c0.815,0,1.476,0.66,1.476,1.475v1.243c0,0.815-0.66,1.476-1.476,1.476c-0.814,0-1.475-0.661-1.475-1.476V23.224z M15.278,28.882    l0.234-1.346c0-0.815,0-1.434,0.525-1.456c0.815,0,1.476,0.661,1.476,1.475v1.243c0,0.815-0.66,1.475-1.476,1.475    C15.223,30.273,15.278,29.697,15.278,28.882z M18.186,33.012c0,0.815-0.66,1.475-1.475,1.475c-0.815,0-1.476-0.66-1.476-1.475    V31.77c0-0.815,0.66-1.475,1.476-1.475c0.814,0,1.475,0.66,1.475,1.475V33.012z M21.083,37.987c0,0.815-0.392,0.824-1.206,0.824    c0,0-0.399-0.099-1.017-0.896c0,0-1.475-2.67,0.747-2.645c0.815,0,1.476,0.66,1.476,1.475V37.987z M21.293,38.134v-1.243    c0-0.815,0.66-1.475,1.476-1.475c0.814,0,1.475,0.66,1.475,1.475v1.243c0,0.815-0.66,1.475-1.475,1.475    C21.954,39.609,21.293,38.949,21.293,38.134z M22.931,42.016v-1.243c0-0.814,0.66-1.475,1.475-1.475s1.476,0.661,1.476,1.475    v1.243c0,0.815-0.661,1.475-1.476,1.475S22.931,42.831,22.931,42.016z M24.47,46.184v-1.242c0-0.815,0.66-1.476,1.475-1.476    c0.815,0,1.476,0.66,1.476,1.476v1.242c0,0.815-0.66,1.476-1.476,1.476C25.13,47.659,24.47,46.999,24.47,46.184z M29.074,49.313    c0,0.654-0.576,1.186-1.288,1.186c-0.711,0-1.287-0.531-1.287-1.186v-0.998c0-0.654,0.576-1.185,1.287-1.185    c0.712,0,1.288,0.53,1.288,1.185V49.313z M27.774,45.808v-1.242c0-0.815,0.66-1.476,1.476-1.476c0.814,0,1.475,0.661,1.475,1.476    v1.242c0,0.815-0.66,1.476-1.475,1.476C28.434,47.283,27.774,46.623,27.774,45.808z M29.462,49.124v-0.998    c0-0.654,0.576-1.185,1.287-1.185c0.712,0,1.288,0.53,1.288,1.185v0.998c0,0.655-0.576,1.186-1.288,1.186    C30.039,50.31,29.462,49.779,29.462,49.124z"/></g></g><text x="0" y="93.939" fill="#000000" font-size="5px" font-weight="bold" font-family="'Helvetica Neue', Helvetica, Arial-Unicode, Arial, Sans-serif">Created by Joel McKinney</text><text x="0" y="98.939" fill="#000000" font-size="5px" font-weight="bold" font-family="'Helvetica Neue', Helvetica, Arial-Unicode, Arial, Sans-serif">from the Noun Project</text></svg>