<svg xmlns="http://www.w3.org/2000/svg" xmlns:xlink="http://www.w3.org/1999/xlink" version="1.1" x="0px" y="0px" viewBox="0 0 100 125" enable-background="new 0 0 100 100" xml:space="preserve"><path fill-rule="evenodd" clip-rule="evenodd" d="M82.954,48.139c-1.286-2.328-1.594-4.977-4.309-6.095  c-3.652-1.506-7.536,0.209-8.216,4.104c-0.33,1.888-1.153,2.279-2.774,2.19c-2.299-0.125-4.607-0.087-6.902-0.261  c-3.175-0.242-5.569,1.108-6.377,4.03c-1.179,4.263-4.516,7.186-6.149,11.189c-2.668,6.544-2.815,13.045-1.076,19.709  c0.375,1.439-0.219,1.955-1.308,2.505c-7.813,3.947-15.886,4.737-24.392,2.556c-8.19-2.101-14.341-6.756-18.39-14.054  c-5.844-10.539-3.102-24.546,6.361-33.167c5.746-5.234,12.518-7.509,20.128-8.315c7.462-0.79,14.917-1.675,22.307-3.205  c5.111-1.059,10.167-2.125,15.065-3.922c1.418-0.52,2.575-1.096,2.011-2.944c-1.353-4.423,0.726-8.909,4.946-11.507  c3.666-2.255,7.573-2.66,11.688-2.294c1.723,0.153,2.767-0.258,2.312-2.331c-0.675-3.083,1.124-5.885,3.916-6.238  C96.117-0.458,99,1.56,99.206,5.169c0.145,2.551-1.127,4.549-2.511,6.416c-0.996,1.346-1.505,2.188-0.126,3.704  c1.852,2.037,2.722,4.721,3.497,7.339c1,3.37-1.248,10.265-5.836,11.222c-3.732,0.778-3.968,4.517-5.772,6.911  C86.661,43.143,85.392,45.917,82.954,48.139z M9.07,62.494c0,0.801-0.044,1.604,0.009,2.401c0.185,2.792,2.193,4.982,4.49,4.936  c2.556-0.051,4.051-2.005,3.973-5.18c-0.042-1.701-0.181-3.409-0.08-5.103c0.431-7.21,5.8-13.09,12.305-14.748  c6.771-1.728,13.777-2.516,20.645-3.899c2.866-0.578,5.673-1.528,8.427-2.53c0.672-0.243,2.036-0.839,1.502-2.008  c-0.358-0.783-1.088-1.557-2.41-1.111c-7.214,2.431-14.797,2.478-22.26,3.278c-2.749,0.295-5.46,0.395-8.231,1.001  C17.426,41.725,8.994,52.098,9.07,62.494z M95.724,24.653c0.038-2.601,0.006-2.934-1.313-5.32  c-4.098-7.418-15.722-9.084-20.828-2.527c-1.433,1.838-1.381,3.9-0.411,5.534c0.892,1.501,3.241,1.329,4.379,0.437  c2.497-1.957,2.711,0.225,3.313,1.51c1.229,2.622,2.619,3.213,5.148,1.68c1.51-0.915,2.105-1,2.536,1.021  c0.373,1.753,1.095,3.697,3.717,3.257c2.362-0.396,3.367-1.835,3.458-4.091C95.742,25.654,95.724,25.153,95.724,24.653z   M91.957,9.966C94.296,9.088,94.48,7.29,95,5.862c0.309-0.849-0.385-1.821-1.456-2.056c-1.154-0.252-1.595,0.392-1.589,1.471  C91.963,6.729,91.957,8.179,91.957,9.966z"/><path fill-rule="evenodd" clip-rule="evenodd" d="M75.646,99.882c-11.367-0.149-20.409-6.509-24.241-16.771  c-3.05-8.17-1.27-15.874,3.461-23.027c0.872-1.316,2.052-1.354,3.114-0.775c0.895,0.489,1.718,0.94,2.736,0.977  c1.152,0.039,1.484,0.926,1.036,1.627c-1.962,3.06-0.819,5.59,1.503,7.541c2.429,2.042,5.85,2.146,7.923,0.155  c4.728-4.541,9.262-3.062,13.925-0.54c2.659,1.438,4.527,0.36,6.337-1.34c1.802-1.692,2.086-3.509,0.802-5.82  c-0.359-0.648-2.397-1.701-0.723-2.75c1.582-0.992,3.124-0.138,4.02,1.382c3.449,5.848,5.602,11.736,3.996,18.938  c-2.084,9.343-7.446,15.435-15.985,18.844C80.994,99.342,78.149,100.447,75.646,99.882z M64.388,74.598  c-3.664-0.003-5.952,1.918-6.088,4.801c-0.143,3.055,3.945,5.824,7.174,5.947c2.977,0.112,6.137-2.743,6.066-5.271  C71.462,77.26,67.989,74.6,64.388,74.598z"/><path fill-rule="evenodd" clip-rule="evenodd" d="M93.056,53.83c-2.667,0.928-5.32,1.902-8.008,2.767  c-1.997,0.643-2.176,1.444-0.549,2.797c0.951,0.791,1.807,1.724,2.577,2.692c0.612,0.771,2.017,1.586,1.014,2.662  c-0.732,0.784-2.138,0.451-3.101-0.092c-1.433-0.81-3.064-1.357-4.355-2.228c-2.894-1.954-5.141-0.886-7.497,0.734  c-1.354,0.931-2.636,1.998-4.079,2.756c-1.032,0.542-2.567,0.863-3.279-0.211c-0.569-0.861-0.324-2.083,0.56-3.223  c3.269-4.208,3.218-4.402-1.834-5.651c-1.538-0.38-2.952-1.079-4.497-1.359c-0.828-0.152-1.518-0.338-1.622-1.395  c-0.121-1.22,0.932-1.646,1.581-1.859c0.988-0.322,2.313-0.441,3.217-0.032c2.213,1.007,4.521,0.592,6.765,0.923  c2.804,0.414,3.688-1.127,4.006-3.461c0.093-0.69,0.018-1.512,0.372-2.031c0.453-0.663,0.59-1.718,1.758-1.79  c1.234-0.075,1.276,0.901,1.773,1.607c0.672,0.953,0.779,1.968,1.017,3.025c0.871,3.853,1.535,4.125,5.346,3.061  c2.868-0.803,5.814-0.458,8.728-0.536C92.983,53.268,93.019,53.55,93.056,53.83z"/><text x="0" y="115" fill="#000000" font-size="5px" font-weight="bold" font-family="'Helvetica Neue', Helvetica, Arial-Unicode, Arial, Sans-serif">Created by Ealancheliyan s</text><text x="0" y="120" fill="#000000" font-size="5px" font-weight="bold" font-family="'Helvetica Neue', Helvetica, Arial-Unicode, Arial, Sans-serif">from the Noun Project</text></svg>