<svg xmlns="http://www.w3.org/2000/svg" xmlns:xlink="http://www.w3.org/1999/xlink" xml:space="preserve" version="1.1" style="shape-rendering:geometricPrecision;text-rendering:geometricPrecision;image-rendering:optimizeQuality;" viewBox="0 0 333 416.25" x="0px" y="0px" fill-rule="evenodd" clip-rule="evenodd"><defs><style type="text/css">
   
    .fil0 {fill:black;fill-rule:nonzero}
   
  </style></defs><g><path class="fil0" d="M176 170c-10,8 -26,8 -35,-2 -10,-9 -8,-19 -8,-31 -12,16 -29,32 -48,13 -20,-20 -6,-44 21,-48 -4,-4 -8,-8 -10,-13 -3,-9 -1,-20 6,-27 11,-11 22,-7 35,-1 -5,-12 -9,-23 2,-34 5,-5 11,-7 18,-7 21,0 25,16 24,33 15,-14 34,-22 51,-5 14,15 10,31 0,46 13,1 25,5 25,21 0,14 -11,20 -23,21 -2,14 -9,25 -25,25 -11,0 -16,-6 -22,-14 -2,9 -3,16 -11,23zm-10 12c-1,7 0,15 1,22 2,4 8,3 7,-2 -1,-7 -2,-15 0,-23 3,-1 6,-3 9,-6 6,7 16,9 24,6 0,1 1,3 1,5 -7,5 -14,12 -14,21 -1,4 6,5 7,0 0,-6 5,-11 9,-14 4,6 9,11 16,13 -5,12 -9,24 -11,36 -2,13 -2,27 -2,43 0,32 -17,31 -17,31 -15,-1 -44,-1 -59,0 0,0 -16,1 -16,-31 0,-16 -1,-30 -3,-43 -2,-12 -5,-24 -10,-36l0 0c6,-2 11,-7 14,-12 0,0 1,-1 1,-1 4,3 9,8 9,14 1,5 8,4 8,0 -1,-9 -8,-16 -15,-21 1,-2 1,-4 1,-5 5,1 11,1 17,-1 7,4 15,6 23,4zm-48 8c-6,9 -19,13 -29,8 -9,-4 -11,-12 -14,-21 -3,11 -5,19 -16,24 -12,4 -25,-2 -30,-14 -5,-14 3,-24 15,-30 -26,-13 -21,-43 12,-41 -27,-31 12,-56 37,-19 -25,9 -31,40 -13,58 12,12 33,13 47,1 1,7 5,14 10,18 -7,2 -12,-1 -18,-5 1,7 2,14 -1,21zm95 -15l1 -6c-9,6 -18,9 -28,0 2,-2 3,-5 5,-8 5,4 12,7 18,7 15,0 28,-11 31,-26 14,-2 24,-13 24,-27 0,-11 -7,-21 -17,-25 8,-16 30,-16 37,0 6,11 0,18 -7,26 11,0 21,0 26,12 7,14 -2,23 -14,29 19,10 23,33 3,43 -20,9 -29,-7 -34,-23 -5,14 -13,28 -31,22 -5,-2 -9,-5 -11,-9 -2,-4 -3,-12 -3,-15z"/></g><text x="0" y="348" fill="#000000" font-size="5px" font-weight="bold" font-family="'Helvetica Neue', Helvetica, Arial-Unicode, Arial, Sans-serif">Created by NOVITA ASTRI</text><text x="0" y="353" fill="#000000" font-size="5px" font-weight="bold" font-family="'Helvetica Neue', Helvetica, Arial-Unicode, Arial, Sans-serif">from the Noun Project</text></svg>