<svg xmlns="http://www.w3.org/2000/svg" xmlns:xlink="http://www.w3.org/1999/xlink" xmlns:a="http://ns.adobe.com/AdobeSVGViewerExtensions/3.0/" version="1.1" x="0px" y="0px" viewBox="-63.214 -6.583 100 125" overflow="visible" enable-background="new -63.214 -6.583 100 100" xml:space="preserve"><path d="M12.37,35.667c0.666-1.75,5.166-28.417,5.166-28.417s-2.416-1.917-2.25-1.583s-2.5,7.833-2.5,7.833l-0.25-6.417  l-1.834,0.083c0,0-0.083,22.5-0.666,22.333S9.702,0,9.702,0H7.369L6.286,23.417L2.619,10.75c0,0-1.417,0.417-2.5,0.667  s5.583,24.417,5.583,24.417S6.202,63,4.952,65s-5.666,17.833,3.417,17.204S11.87,65,11.87,65C11.12,65,11.702,37.417,12.37,35.667z   M10.202,41.945c1.583-0.307-0.5,19.807-0.5,19.807C9.035,61.002,8.619,42.252,10.202,41.945z M10.938,79.251  c-2.333,3.167-4.5-7.333-0.916-7.833C10.022,71.418,13.272,76.084,10.938,79.251z"/><text x="-63.214" y="108.417" fill="#000000" font-size="5px" font-weight="bold" font-family="'Helvetica Neue', Helvetica, Arial-Unicode, Arial, Sans-serif">Created by Michelle Dees</text><text x="-63.214" y="113.417" fill="#000000" font-size="5px" font-weight="bold" font-family="'Helvetica Neue', Helvetica, Arial-Unicode, Arial, Sans-serif">from the Noun Project</text></svg>