<svg xmlns="http://www.w3.org/2000/svg" xmlns:xlink="http://www.w3.org/1999/xlink" version="1.1" x="0px" y="0px" viewBox="0 0 100 125" enable-background="new 0 0 100 100" xml:space="preserve"><g><path fill="#000000" d="M36.5,80.434c-0.085-0.034-1.242-2.711-1.242-2.711l-2.54,0.784c-7.706-4.932-8.053-12.465-8.053-12.465   l4.483,7.006l5.282-0.773c-0.704-3.905-1.154-8.44-1.154-13.655c0-3.549,0.233-6.834,0.628-9.862l-6.182,0.956l6.269-14.31   l2.23,2.545c1.111-3.636,2.396-6.915,3.588-9.261C41.963,24.454,44.096,22,45.325,20h-8.288c-0.291,0-0.581,0.289-0.871,0.296   c-1.749,1.246-6.06,4.693-10.328,9.765C20.771,36.083,14.73,45.973,14.73,58.55c0,12.574,6.04,21.596,11.107,26.921   c4.126,4.334,8.285,7.224,10.126,8.299C36.321,93.78,36.678,94,37.037,94h6.827c-1.135-2-2.921-3.599-4.719-7.066   C38.275,85.257,37.352,82.968,36.5,80.434z"/><path fill="#000000" d="M25.305,86.014c-5.16-5.422-11.311-14.576-11.311-27.395c0-12.807,6.143-22.789,11.296-28.908   c3.707-4.401,7.448-7.489,9.559-9.077C15.487,21.76,0,37.698,0,57.089c0,19.249,15.264,35.099,34.43,36.427   C32.26,92.141,28.767,89.649,25.305,86.014z"/><path fill="#000000" d="M62.607,80.771c-2.465,0.881-5.406,1.519-8.916,1.783L50,79.662l-3.692,2.892   c-3.51-0.265-6.451-0.902-8.916-1.783c0.774,2.214,1.599,4.265,2.38,5.775C41.825,90.52,43.896,93,44.902,94H50h5.098   c1.006-1,3.077-3.48,5.13-7.454C61.009,85.035,61.834,82.984,62.607,80.771z"/><path fill="#000000" d="M74.162,85.471C79.229,80.146,85.27,71.124,85.27,58.55c0-12.577-6.04-22.467-11.107-28.489   c-4.268-5.072-8.579-8.519-10.328-9.765C63.544,20.289,63.254,20,62.963,20h-8.287c1.229,2,3.361,4.454,5.515,8.688   c1.192,2.346,2.478,5.625,3.589,9.261l2.23-2.545l6.269,14.31l-6.183-0.956c0.396,3.028,0.629,6.313,0.629,9.862   c0,5.215-0.45,9.75-1.154,13.655l5.281,0.773l4.484-7.006c0,0-0.348,7.533-8.053,12.465l-2.541-0.784c0,0-1.156,2.677-1.242,2.711   c-0.852,2.534-1.775,4.823-2.645,6.5C59.057,90.401,57.271,92,56.137,94h6.826c0.359,0,0.717-0.22,1.073-0.23   C65.877,92.694,70.036,89.805,74.162,85.471z"/><path fill="#000000" d="M65.15,20.635c2.111,1.588,5.853,4.675,9.56,9.077c5.153,6.119,11.296,16.101,11.296,28.908   c0,12.818-6.15,21.973-11.311,27.395c-3.462,3.636-6.955,6.127-9.125,7.502C84.736,92.188,100,76.338,100,57.089   C100,37.698,84.513,21.76,65.15,20.635z"/><path fill="#000000" d="M59.553,29.057C57.164,24.35,54.752,22,53.684,20H50h-3.684c-1.067,2-3.479,4.35-5.869,9.057   c-1.217,2.4-2.532,5.631-3.655,9.402l7.493,8.625l-9.623,1.519c-0.409,3.056-0.651,6.4-0.651,9.999   c0,5.181,0.448,9.688,1.146,13.557l1.875-0.27l5.921,5.927L50,73.126l7.047,4.689l5.92-5.927l1.875,0.27   c0.699-3.868,1.146-8.376,1.146-13.557c0-3.599-0.241-6.943-0.65-9.999l-9.623-1.519l7.493-8.625   C62.086,34.688,60.771,31.457,59.553,29.057z M58.379,65H50h-8.379L50,51.815L58.379,65z"/><path fill="#000000" d="M59.716,19c-8-2,6.705-15,6.705-15H57.89c-4.511,7-18.369,15-18.369,15H50H59.716z"/></g><text x="0" y="115" fill="#000000" font-size="5px" font-weight="bold" font-family="'Helvetica Neue', Helvetica, Arial-Unicode, Arial, Sans-serif">Created by John Leonard</text><text x="0" y="120" fill="#000000" font-size="5px" font-weight="bold" font-family="'Helvetica Neue', Helvetica, Arial-Unicode, Arial, Sans-serif">from the Noun Project</text></svg>