<svg xmlns:dc="http://purl.org/dc/elements/1.1/" xmlns:cc="http://creativecommons.org/ns#" xmlns:rdf="http://www.w3.org/1999/02/22-rdf-syntax-ns#" xmlns:svg="http://www.w3.org/2000/svg" xmlns="http://www.w3.org/2000/svg" xmlns:sodipodi="http://sodipodi.sourceforge.net/DTD/sodipodi-0.dtd" xmlns:inkscape="http://www.inkscape.org/namespaces/inkscape" viewBox="0 0 32 40" version="1.1" x="0px" y="0px"><g transform="translate(0,-1020.3622)"><path d="m 15.180906,1022.8622 c 0.001,-6e-4 0.0038,0.019 0.0076,0.023 0.0038,0 0.08123,-0.03 0.244079,-0.01 l 0,0 1.645979,0.2286 a 0.50067513,0.50070472 0 0 0 0,0.01 c 0.149621,0.023 0.234633,0.056 0.265615,0.072 l -0.101636,0.5467 c -0.171535,0.8555 0.0076,1.7387 0.484152,2.4681 l -0.687274,0.2305 -0.321911,-0.1603 c -0.304154,-0.1519 -0.644692,-0.1787 -0.96649,-0.1054 -0.170779,0.038 -0.338914,0.094 -0.488119,0.1931 l -0.698986,0.4667 -0.398384,-0.4003 0.478371,-0.6345 c 0.569088,-0.7567 0.783544,-1.72 0.597501,-2.6478 l -0.03778,-0.2071 c -0.0076,-0.043 -0.01134,-0.045 -0.01511,-0.053 -2.64e-4,-2e-4 -0.01511,4e-4 -0.01511,0 0.0038,-0 0.0076,-0.023 0.01134,-0.023 z" style="color:#000000;font-style:normal;font-variant:normal;font-weight:normal;font-stretch:normal;font-size:medium;line-height:normal;font-family:sans-serif;text-indent:0;text-align:start;text-decoration:none;text-decoration-line:none;text-decoration-style:solid;text-decoration-color:#000000;letter-spacing:normal;word-spacing:normal;text-transform:none;direction:ltr;writing-mode:lr-tb;baseline-shift:baseline;text-anchor:start;white-space:normal;clip-rule:nonzero;display:inline;overflow:visible;visibility:visible;opacity:1;isolation:auto;mix-blend-mode:normal;color-interpolation:sRGB;color-interpolation-filters:linearRGB;solid-color:#000000;solid-opacity:1;fill:#000000;fill-opacity:1;fill-rule:evenodd;stroke:none;stroke-width:0.26458335px;stroke-linecap:round;stroke-linejoin:round;stroke-miterlimit:4;stroke-dasharray:none;stroke-dashoffset:0;stroke-opacity:1;color-rendering:auto;image-rendering:auto;shape-rendering:auto;text-rendering:auto;enable-background:accumulate"/><path d="m 16.040054,1027.1209 c 0,0 0.0019,0 0.0019,0 0.07632,-0 0.153021,0.011 0.222542,0.045 0,0 0.0019,0 0.0019,0 l 0.36914,0.1856 c 0.08388,0.042 0.175314,0.06 0.267504,0.074 l -0.275438,6.9064 c -0.08237,2.0285 -0.0023,4.0579 0.242189,6.0667 l 0.562325,4.6492 c 0.176825,1.4536 -0.01511,2.9436 -0.546758,4.2508 l -0.218764,0.5448 c -0.05856,0 -0.112593,0.019 -0.171913,0.019 l -0.989991,0 c -0.150376,0 -0.289795,-0.03 -0.435336,-0.047 l -0.207051,-0.5154 c -0.530435,-1.3072 -0.721769,-2.7973 -0.544831,-4.2509 l 0.560398,-4.6491 c 0.244456,-2.0088 0.326068,-4.0383 0.244078,-6.0667 l -0.263725,-6.5354 c 0.0597,-0.023 0.120906,-0.04 0.175691,-0.076 l 0.788834,-0.5233 c 0.06612,-0.044 0.141309,-0.071 0.216875,-0.076 z" style="color:#000000;font-style:normal;font-variant:normal;font-weight:normal;font-stretch:normal;font-size:medium;line-height:normal;font-family:sans-serif;text-indent:0;text-align:start;text-decoration:none;text-decoration-line:none;text-decoration-style:solid;text-decoration-color:#000000;letter-spacing:normal;word-spacing:normal;text-transform:none;direction:ltr;writing-mode:lr-tb;baseline-shift:baseline;text-anchor:start;white-space:normal;clip-rule:nonzero;display:inline;overflow:visible;visibility:visible;opacity:1;isolation:auto;mix-blend-mode:normal;color-interpolation:sRGB;color-interpolation-filters:linearRGB;solid-color:#000000;solid-opacity:1;fill:#000000;fill-opacity:1;fill-rule:evenodd;stroke:none;stroke-width:0.26458335px;stroke-linecap:round;stroke-linejoin:round;stroke-miterlimit:4;stroke-dasharray:none;stroke-dashoffset:0;stroke-opacity:1;color-rendering:auto;image-rendering:auto;shape-rendering:auto;text-rendering:auto;enable-background:accumulate"/><path d="m 18.074481,1027.1443 c 0.530512,0.7626 0.921717,1.7472 0.921604,2.7669 l 0,3.1221 c 0,2.8367 0.642273,5.5481 0.966489,8.2517 l 0.509618,4.1982 c 0.224431,1.8714 -0.931276,3.5387 -2.637822,4.1317 0.579592,-1.4582 0.788116,-3.0854 0.593609,-4.6843 l -0.568219,-4.6492 c -0.238033,-1.9549 -0.316244,-3.9377 -0.236144,-5.9124 l 0.279217,-6.9806 a 0.49988792,0.49991747 0 0 0 -0.02267,-0.1798 l 0.195338,-0.065 z" style="color:#000000;font-style:normal;font-variant:normal;font-weight:normal;font-stretch:normal;font-size:medium;line-height:normal;font-family:sans-serif;text-indent:0;text-align:start;text-decoration:none;text-decoration-line:none;text-decoration-style:solid;text-decoration-color:#000000;letter-spacing:normal;word-spacing:normal;text-transform:none;direction:ltr;writing-mode:lr-tb;baseline-shift:baseline;text-anchor:start;white-space:normal;clip-rule:nonzero;display:inline;overflow:visible;visibility:visible;opacity:1;isolation:auto;mix-blend-mode:normal;color-interpolation:sRGB;color-interpolation-filters:linearRGB;solid-color:#000000;solid-opacity:1;fill:#000000;fill-opacity:1;fill-rule:evenodd;stroke:none;stroke-width:0.26458335px;stroke-linecap:round;stroke-linejoin:round;stroke-miterlimit:4;stroke-dasharray:none;stroke-dashoffset:0;stroke-opacity:1;color-rendering:auto;image-rendering:auto;shape-rendering:auto;text-rendering:auto;enable-background:accumulate"/><path d="m 13.73408,1027.4177 0.117128,0.1171 0.273549,6.8342 c 0.0801,1.9747 0.0036,3.9576 -0.234255,5.9125 l -0.570146,4.6492 c -0.190426,1.5654 0.01133,3.156 0.562325,4.5905 -1.552391,-0.6712 -2.566677,-2.2692 -2.354714,-4.0379 l 0.501834,-4.1982 c 0.324179,-2.7036 0.974273,-5.4151 0.974273,-8.2517 l 0,-3.1222 a 0.49988796,0.4999175 0 0 0 -0.0076,-0.059 c -0.09144,-0.8124 0.279594,-1.6797 0.73794,-2.4349 z" style="color:#000000;font-style:normal;font-variant:normal;font-weight:normal;font-stretch:normal;font-size:medium;line-height:normal;font-family:sans-serif;text-indent:0;text-align:start;text-decoration:none;text-decoration-line:none;text-decoration-style:solid;text-decoration-color:#000000;letter-spacing:normal;word-spacing:normal;text-transform:none;direction:ltr;writing-mode:lr-tb;baseline-shift:baseline;text-anchor:start;white-space:normal;clip-rule:nonzero;display:inline;overflow:visible;visibility:visible;opacity:1;isolation:auto;mix-blend-mode:normal;color-interpolation:sRGB;color-interpolation-filters:linearRGB;solid-color:#000000;solid-opacity:1;fill:#000000;fill-opacity:1;fill-rule:evenodd;stroke:none;stroke-width:0.26458335px;stroke-linecap:round;stroke-linejoin:round;stroke-miterlimit:4;stroke-dasharray:none;stroke-dashoffset:0;stroke-opacity:1;color-rendering:auto;image-rendering:auto;shape-rendering:auto;text-rendering:auto;enable-background:accumulate"/></g><text x="0" y="47" fill="#000000" font-size="5px" font-weight="bold" font-family="'Helvetica Neue', Helvetica, Arial-Unicode, Arial, Sans-serif">Created by anbileru adaleru</text><text x="0" y="52" fill="#000000" font-size="5px" font-weight="bold" font-family="'Helvetica Neue', Helvetica, Arial-Unicode, Arial, Sans-serif">from the Noun Project</text></svg>