<svg xmlns="http://www.w3.org/2000/svg" xmlns:xlink="http://www.w3.org/1999/xlink" version="1.1" x="0px" y="0px" viewBox="0 0 100 125" style="enable-background:new 0 0 100 100;" xml:space="preserve"><g><path d="M52.5235405,74.726181c-4.3127441-2.3313599-8.4604492-5.3555298-12.2563477-8.9713135l-6.9182129,6.9186401   c1.8118896,1.6776733,3.7469482,3.1464844,5.7746582,4.4120483C45.3697319,78.6871185,50.1468315,76.3503876,52.5235405,74.726181z   "/><path d="M23.8606987,29.6710701c-3.7219238,9.0848999-3.831665,19.3075562-0.3439941,28.4642944   c0.6621094-4.7979736,3.0280762-8.2141113,4.2282715-9.6771851C24.8052788,42.0485725,23.4645805,35.542408,23.8606987,29.6710701z   "/><path d="M74.1440277,80.0782928c-0.6400146,0.041626-1.2816162,0.079895-1.9398193,0.079895   c-2.0952148,0-4.2788086-0.2109375-6.5327148-0.6386719c-3.3972206-0.6450195-6.8085976-1.7617188-10.1508827-3.2932129   c-1.4481201,1.1900024-4.8284912,3.5396118-9.5913086,4.2202148C55.0149956,83.8601532,65.1349945,83.743576,74.1440277,80.0782928   z"/><path d="M38.1471977,63.63274c-3.6375732-3.8218994-6.6207275-7.9491577-8.9036865-12.1732178   c-1.6307373,2.3879395-3.9748535,7.1865845-2.3381348,13.4612999c1.2452393,1.9758301,2.6843262,3.8623657,4.3225098,5.6315918   L38.1471977,63.63274z"/><path d="M91.7759857,51.0273323c-1.6538086-8.7080078-6.6186523-17.5585938-13.980957-24.9208984   S61.5821342,13.7792845,52.8741264,12.1249876c-2.0610352-0.390625-4.0537109-0.5839844-5.9570312-0.5839844   c-5.9443359,0-11.0244141,1.8847656-14.6557617,5.5166025C22.2027397,27.1161995,26.26231,47.5429573,41.3101616,62.5908089   c7.3623047,7.3623009,16.2128906,12.3271446,24.9209023,13.9814415c8.4980469,1.6123047,15.8188477-0.1376953,20.612793-4.9326172   C91.6378021,66.8456879,93.3897552,59.5253792,91.7759857,51.0273323z M84.0518646,68.847641   c-3.1147461,3.1152344-7.440918,4.6015625-12.3310547,4.6025391c-8.7192421,0-19.2338905-4.7255859-27.8886757-13.3808556   c-13.5083008-13.5087891-17.4462891-31.5517578-8.7788086-40.2197266   c4.2949219-4.2958994,10.9135742-5.6816416,18.628418-3.9023447c7.4663086,1.7207041,15.1342812,6.2246103,21.5913124,12.6816416   s10.9604492,14.1240234,12.6806641,21.5908203C89.7325287,57.9374886,88.3467865,64.5536957,84.0518646,68.847641z"/><path d="M73.1519623,30.7499886c-6.0644531-6.0644531-13.2182655-10.2832031-20.1435585-11.8789062   c-1.9667969-0.453125-3.8427734-0.6777344-5.6005859-0.6777344c-4.2070312,0-7.7387695,1.2832031-10.2333984,3.7773438   c-7.4980469,7.4980469-3.5595703,23.6376953,8.7788086,35.9775391   c12.3398438,12.3398399,28.479496,16.2744102,35.9775429,8.7783165c3.5366211-3.5371056,4.6376953-9.1591759,3.0996094-15.833004   C83.4346771,43.967762,79.2159271,36.8144417,73.1519623,30.7499886z M38.1959038,34.5428963   c0.0404053-0.9169312,0.9125977-1.2689209,1.9481201-0.7861328s2.9979248,2.156311,2.9576416,3.0733032   c-0.0405273,0.9169312-2.0683594,0.7300415-3.1038818,0.2473145C38.9622612,36.594593,38.1556206,35.4598885,38.1959038,34.5428963   z M43.19627,47.0496101c-0.9168701,0.0404053-2.0516357-0.7662964-2.5344238-1.8018188   c-0.4827881-1.0354614-0.1307373-1.9076538,0.7862549-1.947998c0.9168701-0.0404053,3.0750732,0.7211914,3.5578613,1.7567139   C45.4886284,46.0920296,44.1132622,47.0092659,43.19627,47.0496101z M45.6434135,30.5800056   c-0.5527344,0.5527344-2.6896973-0.6881714-3.5662842-1.5647583s-1.1390381-2.0352783-0.5864258-2.5879517   c0.5527344-0.5527344,1.7114258-0.2902222,2.5880127,0.5863647S46.1961479,30.0273323,45.6434135,30.5800056z    M50.7256889,56.3499641c-0.5526123,0.5526733-1.7113037,0.2901611-2.5878906-0.5864258s-1.1391602-2.0352173-0.5864258-2.5879517   s2.3283691-0.9071045,3.2049561-0.0305786C51.6329155,54.021595,51.2784233,55.7972298,50.7256889,56.3499641z    M51.8605766,28.0710335c-0.9168701,0.0404053-2.5904541-1.9220581-3.0733643-2.9575806   c-0.482666-1.0355225-0.1307373-1.9076538,0.7862549-1.9480591c0.9168701-0.0404053,2.0516357,0.7662964,2.5344238,1.8018188   S52.7775688,28.0306892,51.8605766,28.0710335z M58.6207085,63.2723885   c-1.0356445-0.4827271-1.8422852-1.6174927-1.8018799-2.5344238s0.9576416-2.2924194,1.993042-1.8096313   c1.0356445,0.4827881,1.7971191,2.6409302,1.7568359,3.5579224C60.5283012,63.4031868,59.6561089,63.7551765,58.6207085,63.2723885   z M60.0870171,29.9753914c-1.0354004-0.4827881-1.7971191-2.6409912-1.7567139-3.5579224   c0.0404053-0.9169922,0.9124756-1.2689209,1.9481201-0.7861328c1.0354004,0.4827271,1.8421631,1.6174316,1.8017578,2.5344238   C62.0397758,29.0826912,61.1225395,30.4581795,60.0870171,29.9753914z M69.3913422,65.6724701   c-0.9168701,0.0404053-2.0516357-0.7662964-2.5344238-1.801754c-0.4827881-1.0355225-0.6696777-3.0634766,0.2473145-3.1038818   c0.9168701-0.0403442,2.5904541,1.9221191,3.0733643,2.9576416C70.6602631,64.7599335,70.3083344,65.6321259,69.3913422,65.6724701   z M71.4134369,35.6623421c-0.5527344,0.5527344-2.3283691,0.9071045-3.2049561,0.0305176s-0.5220947-2.6521606,0.0306396-3.204895   c0.5526123-0.5527344,1.7113037-0.2901611,2.5878906,0.5863647C71.703598,33.9509163,71.9661713,35.1096077,71.4134369,35.6623421z    M75.7685394,41.7882576c0.9168701-0.0404053,2.0516357,0.7662964,2.5344238,1.8018188s0.1307373,1.9076538-0.7862549,1.9480591   c-0.9168701,0.0404053-3.0750732-0.7212524-3.5578613-1.7567139C73.476181,42.7458992,74.8515472,41.8286629,75.7685394,41.7882576   z M77.4741058,62.4106331c-0.5527344,0.5527344-1.7114258,0.2901611-2.5880127-0.5863647   c-0.8764648-0.8765869-2.1174316-3.0136719-1.5646973-3.5664062s2.6896973,0.6882324,3.5662842,1.5648193   C77.764267,60.6992073,78.0267181,61.8578987,77.4741058,62.4106331z M78.7549896,55.1469612   c-1.0355225-0.4827881-2.9980469-2.156311-2.9575195-3.0733032c0.0402832-0.9169312,2.0683594-0.7300415,3.1037598-0.2473145   c1.0355225,0.4827881,1.8422852,1.6174927,1.8017578,2.5344849C80.6627045,55.2777596,79.7905121,55.6297493,78.7549896,55.1469612   z"/></g><text x="0" y="115" fill="#000000" font-size="5px" font-weight="bold" font-family="'Helvetica Neue', Helvetica, Arial-Unicode, Arial, Sans-serif">Created by Artem  Kovyazin</text><text x="0" y="120" fill="#000000" font-size="5px" font-weight="bold" font-family="'Helvetica Neue', Helvetica, Arial-Unicode, Arial, Sans-serif">from the Noun Project</text></svg>