<svg xmlns="http://www.w3.org/2000/svg" xmlns:xlink="http://www.w3.org/1999/xlink" version="1.1" x="0px" y="0px" viewBox="0 0 160 200" style="enable-background:new 0 0 160 160;" xml:space="preserve"><g><path d="M39.974,73.699c-0.843-1.093-2.415-1.295-3.506-0.45l-7.333,5.666c-1.093,0.845-1.294,2.414-0.45,3.507   c0.492,0.638,1.232,0.972,1.98,0.972c0.534,0,1.072-0.17,1.526-0.521l7.333-5.666C40.617,76.361,40.818,74.792,39.974,73.699z"/><path d="M74.634,89.068l-9.667,7.333c-1.1,0.835-1.315,2.403-0.481,3.503c0.492,0.648,1.238,0.989,1.994,0.989   c0.526,0,1.057-0.165,1.509-0.508l9.667-7.333c1.1-0.835,1.315-2.403,0.481-3.503C77.301,88.449,75.733,88.233,74.634,89.068z"/><path d="M53.832,92.324c-1.327-0.384-2.711,0.389-3.091,1.717l-1.333,4.666c-0.379,1.327,0.389,2.711,1.717,3.09   c0.229,0.066,0.461,0.098,0.688,0.098c1.087,0,2.088-0.716,2.402-1.814l1.333-4.666C55.928,94.087,55.159,92.703,53.832,92.324z"/><path d="M95.527,93.97l-2.333-7.334c-0.419-1.316-1.824-2.048-3.14-1.624c-1.316,0.418-2.043,1.824-1.625,3.14l2.333,7.334   c0.338,1.063,1.322,1.743,2.382,1.743c0.251,0,0.506-0.038,0.758-0.119C95.218,96.691,95.945,95.285,95.527,93.97z"/><path d="M30.311,95.061l-8-6c-1.104-0.827-2.671-0.604-3.5,0.5c-0.829,1.104-0.604,2.672,0.5,3.5l8,6   c0.45,0.337,0.976,0.5,1.498,0.5c0.76,0,1.511-0.345,2.002-1C31.64,97.456,31.416,95.889,30.311,95.061z"/><path d="M65.984,83.676l1.75-6.888c0.34-1.338-0.469-2.698-1.807-3.038c-1.335-0.344-2.699,0.468-3.039,1.808l-1.75,6.888   c-0.34,1.338,0.469,2.698,1.807,3.038c0.207,0.053,0.414,0.078,0.618,0.078C64.679,85.562,65.697,84.808,65.984,83.676z"/><path d="M47.515,47.573l-9.773,1c-1.374,0.141-2.373,1.368-2.232,2.742c0.131,1.287,1.217,2.245,2.484,2.245   c0.085,0,0.171-0.004,0.257-0.013l9.773-1c1.374-0.141,2.373-1.368,2.232-2.742C50.116,48.432,48.892,47.432,47.515,47.573z"/><path d="M62.96,56.21c0.336,0.153,0.689,0.227,1.037,0.227c0.949,0,1.856-0.543,2.276-1.463l2.625-5.75   c0.573-1.256,0.02-2.739-1.236-3.313c-1.255-0.571-2.739-0.02-3.313,1.236l-2.625,5.75C61.151,54.153,61.704,55.637,62.96,56.21z"/><path d="M91.978,54.686h6.583c1.381,0,2.5-1.119,2.5-2.5s-1.119-2.5-2.5-2.5h-6.583c-1.381,0-2.5,1.119-2.5,2.5   S90.597,54.686,91.978,54.686z"/><path d="M76.432,62.231l6.728,1.75c0.211,0.055,0.423,0.081,0.631,0.081c1.111,0,2.125-0.746,2.418-1.872   c0.348-1.336-0.454-2.701-1.79-3.049l-6.728-1.75c-1.333-0.344-2.701,0.455-3.049,1.791S75.096,61.883,76.432,62.231z"/><path d="M98.104,62.9c0.227,1.199,1.276,2.035,2.454,2.035c0.154,0,0.311-0.014,0.468-0.044l9.25-1.75   c1.356-0.256,2.248-1.564,1.992-2.921s-1.562-2.252-2.921-1.991l-9.25,1.75C98.74,60.235,97.848,61.544,98.104,62.9z"/><path d="M43.84,83.147l-2.208,1.277c-1.195,0.691-1.604,2.221-0.913,3.416c0.463,0.801,1.303,1.248,2.167,1.248   c0.425,0,0.855-0.108,1.249-0.336l2.208-1.277c1.195-0.691,1.604-2.221,0.913-3.416C46.564,82.864,45.035,82.457,43.84,83.147z"/><path d="M116.184,83.592c-0.435-1.311-1.848-2.021-3.16-1.586c-1.311,0.435-2.021,1.85-1.586,3.16l1,3.015   c0.348,1.05,1.325,1.714,2.373,1.714c0.261,0,0.526-0.041,0.788-0.128c1.311-0.435,2.021-1.85,1.586-3.16L116.184,83.592z"/><path d="M128.261,86.485c-1.234-0.615-2.736-0.113-3.353,1.121l-2.333,4.676c-0.617,1.235-0.115,2.736,1.121,3.354   c0.358,0.179,0.739,0.264,1.114,0.264c0.917,0,1.801-0.508,2.239-1.385l2.333-4.676C129.998,88.604,129.496,87.103,128.261,86.485z   "/><path d="M136.936,98.947c-0.252-1.358-1.556-2.258-2.914-2.003c-1.357,0.251-2.254,1.556-2.003,2.913l1,5.403   c0.223,1.204,1.274,2.045,2.456,2.045c0.151,0,0.304-0.014,0.458-0.042c1.357-0.251,2.254-1.556,2.003-2.913L136.936,98.947z"/><path d="M146.492,50.32l-84.62-23.053c-3.08-0.841-6.396-0.622-9.337,0.614l-40.433,16.96C7.788,46.651,5,50.889,5,55.638v42.764   c0,5.277,3.499,9.916,8.508,11.279l84.62,23.053c1.231,0.336,2.501,0.502,3.77,0.502c1.902,0,3.802-0.375,5.567-1.115   l40.433-16.961c4.314-1.81,7.102-6.047,7.102-10.795V61.601C155,56.324,151.501,51.686,146.492,50.32z M56.017,36.181   c0,0,0.001,0,0.001,0c0.659-0.277,1.369-0.417,2.08-0.417c0.474,0,0.948,0.063,1.409,0.188l13.547,3.69l2.211,4.623   c0.429,0.897,1.324,1.422,2.257,1.422c0.361,0,0.729-0.079,1.077-0.246c1.246-0.596,1.772-2.088,1.177-3.334l-0.348-0.729   l58.847,16.031l-7.274,3.052l-8.683-3.814c-1.262-0.555-2.739,0.021-3.294,1.283c-0.555,1.265,0.02,2.739,1.284,3.295l4.334,1.904   l-22.292,9.351L21.796,50.535l20.457-8.581l11.327,1.824c0.135,0.022,0.269,0.032,0.4,0.032c1.206,0,2.268-0.874,2.465-2.103   c0.22-1.363-0.708-2.646-2.071-2.865l-3.4-0.548L56.017,36.181z M85.845,120.059c0.151-0.219,0.271-0.465,0.348-0.735l1.333-4.667   c0.379-1.327-0.389-2.711-1.717-3.09c-1.326-0.383-2.711,0.389-3.091,1.717l-1.333,4.667c-0.083,0.292-0.102,0.585-0.081,0.871   l-17.643-4.806l-1.242-3.534c-0.458-1.302-1.885-1.987-3.187-1.529c-1.303,0.457-1.988,1.885-1.53,3.188l0.098,0.28l-41.928-11.422   C14.77,100.696,14,99.629,14,98.401V73.178l9.469-7.183c1.1-0.835,1.315-2.403,0.481-3.503c-0.835-1.101-2.404-1.314-3.502-0.481   L14,66.901V55.666l36.117,9.839l1.44,5.568c0.292,1.127,1.306,1.875,2.418,1.875c0.208,0,0.418-0.026,0.628-0.081   c1.336-0.345,2.14-1.709,1.794-3.046l-0.725-2.802L99.09,78.847v44.821L85.845,120.059z M144.417,106.86l-16.673,6.994   c-0.267-0.187-0.574-0.324-0.913-0.396l-10-2.122c-1.354-0.282-2.678,0.576-2.964,1.927c-0.287,1.351,0.576,2.678,1.926,2.964   l4.18,0.887l-13.881,5.823v-16.9l4.697-1.991c1.271-0.539,1.865-2.007,1.326-3.277c-0.539-1.272-2.006-1.862-3.278-1.326   l-2.745,1.164V78.5l13.612-5.71l5.945,5.579c0.482,0.452,1.097,0.677,1.71,0.677c0.667,0,1.332-0.265,1.824-0.789   c0.945-1.007,0.895-2.589-0.112-3.534l-4.317-4.051L146,61.759v9.332c-0.826-0.638-1.993-0.721-2.91-0.111l-4.667,3.112   c-1.148,0.767-1.459,2.318-0.693,3.467c0.482,0.723,1.274,1.113,2.083,1.113c0.477,0,0.958-0.136,1.385-0.42l4.667-3.112   c0.05-0.033,0.089-0.075,0.135-0.111v20.05c-1.089-0.836-2.651-0.639-3.496,0.446c-0.848,1.091-0.651,2.661,0.439,3.509   l3.057,2.377v2.953C146,105.46,145.364,106.463,144.417,106.86z"/></g><text x="0" y="175" fill="#000000" font-size="5px" font-weight="bold" font-family="'Helvetica Neue', Helvetica, Arial-Unicode, Arial, Sans-serif">Created by Symbolon</text><text x="0" y="180" fill="#000000" font-size="5px" font-weight="bold" font-family="'Helvetica Neue', Helvetica, Arial-Unicode, Arial, Sans-serif">from the Noun Project</text></svg>