<svg xmlns="http://www.w3.org/2000/svg" xmlns:xlink="http://www.w3.org/1999/xlink" version="1.1" x="0px" y="0px" viewBox="0 0 100 125" enable-background="new 0 0 100 100" xml:space="preserve"><path d="M69.955,26.987c1.569,4.928,2.225,9.831,2.563,14.775c0.636,9.319-0.647,18.44-2.977,27.448  c-0.282,1.088-0.875,1.736-1.835,2.221c-2.208,1.114-4.535,1.752-6.995,1.924c-0.743,0.052-1.488,0.085-2.241,0.591  c1.59,0,3.19,0.115,4.766-0.031c1.651-0.153,3.279-0.556,5.237-0.907c-1.445,4.654-1.428,9.637-5.6,13.104  c-4.197,3.487-8.181,7.234-12.204,10.926c-2.154,1.977-4.484,2.036-6.995,0.946c-5.767-2.505-10.024-6.301-11.39-12.796  c-1.331-6.324-2.995-12.579-4.268-18.914c-0.779-3.876-0.973-7.869-0.219-11.789c0.408-2.123,0.872-4.377,1.941-6.204  c2.662-4.549,3.246-9.468,3.43-14.547c0.16-4.446,0.297-8.897,0.624-13.332c0.193-2.617,1.169-5.05,2.468-7.352  c1.072-1.901,1.983-3.893,3.045-5.801c3.808-6.839,9.082-7.796,15.065-2.745c0.898,0.758,1.729,1.596,2.574,2.415  c0.233,0.226,0.403,0.517,0.667,0.865c-1.277,2.657-3.968,2.451-6.617,3.31c3.187,0.401,5.722,0.024,8.006-1.979  c4.999,3.13,8.823,7.165,10.386,13.005c0.703,2.626,0.498,3.205-2.083,4.257c-2.457,1.002-5.056,1.658-8.15,2.644  c2.291-0.229,4.053-0.286,5.765-0.61C66.549,28.101,68.132,27.514,69.955,26.987z M44.392,57.802  c0.032-2.177-2.294-5.18-4.365-5.633c-1.544-0.338-2.53,0.361-2.612,1.849c-0.121,2.196,2.365,5.374,4.52,5.78  C43.482,60.089,44.369,59.368,44.392,57.802z M42.114,74.69c0.24-0.331,0.853-0.813,0.944-1.379  c0.194-1.218-1.313-3.213-2.555-3.679c-1.058-0.397-2.015,0.251-2.055,1.389C38.397,72.496,40.248,74.581,42.114,74.69z"/><text x="0" y="115" fill="#000000" font-size="5px" font-weight="bold" font-family="'Helvetica Neue', Helvetica, Arial-Unicode, Arial, Sans-serif">Created by Marco Galtarossa</text><text x="0" y="120" fill="#000000" font-size="5px" font-weight="bold" font-family="'Helvetica Neue', Helvetica, Arial-Unicode, Arial, Sans-serif">from the Noun Project</text></svg>