<svg xmlns="http://www.w3.org/2000/svg" xmlns:xlink="http://www.w3.org/1999/xlink" version="1.1" x="0px" y="0px" viewBox="0 0 100 125" style="enable-background:new 0 0 100 100;" xml:space="preserve"><path d="M55.2,60.5l-2.4-0.7c-0.2-0.1-0.3-0.4-0.2-0.6l1.6-1.9c2.6-3,6.9-3.8,10.4-2l0.3,0.2c0.2,0.1,0.2,0.3,0.1,0.5L65,56.4  C63.1,59.9,59.1,61.6,55.2,60.5z"/><path d="M59,52.9l-2.2-0.6c-0.2-0.1-0.3-0.4-0.2-0.6l1.5-1.7c2.4-2.8,6.5-3.6,9.7-1.8l0.2,0.1c0.2,0.1,0.2,0.3,0.1,0.5L68.1,49  C66.3,52.3,62.6,53.9,59,52.9z"/><path d="M62.7,45.4l-2-0.5c-0.2-0.1-0.3-0.4-0.2-0.6l1.3-1.6c2.2-2.6,6-3.3,9.1-1.7l0.2,0.1c0.2,0.1,0.2,0.3,0.1,0.5l-0.1,0.2  C69.6,44.8,66,46.3,62.7,45.4z"/><path d="M66.1,38.4l-1.8-0.5c-0.2-0.1-0.3-0.4-0.2-0.6l1.2-1.4c2.1-2.4,5.6-3.1,8.4-1.6l0.1,0.1c0.2,0.1,0.2,0.3,0.1,0.5l-0.1,0.1  C72.4,37.9,69.2,39.3,66.1,38.4z"/><path d="M69.5,31.5l-1.5-0.4c-0.2-0.1-0.3-0.4-0.2-0.6l1-1.2c1.9-2.2,5.1-2.8,7.7-1.4l0.1,0c0.2,0.1,0.2,0.3,0.1,0.5l0,0.1  C75.3,31,72.3,32.3,69.5,31.5z"/><path d="M72.9,24.6l-1.3-0.4c-0.2-0.1-0.3-0.4-0.2-0.6l0.9-1c1.7-2,4.6-2.6,7-1.3l0,0c0.2,0.1,0.2,0.3,0.1,0.5v0  C78.2,24.1,75.4,25.3,72.9,24.6z"/><path d="M74.2,19.3L73,19.9c-0.2,0.1-0.5,0-0.5-0.3l-0.1-1.4c-0.2-2.7,1.5-5.1,4-5.9l0,0c0.2-0.1,0.4,0,0.4,0.2v0  C77.6,15.2,76.5,18,74.2,19.3z"/><path d="M48.7,57.1l1.9,1.6c0.2,0.2,0.5,0.1,0.6-0.2l0.7-2.4c1.1-3.8-0.7-7.9-4.2-9.8l-0.3-0.2c-0.2-0.1-0.4,0-0.5,0.1l-0.2,0.3  C44.9,50.1,45.7,54.5,48.7,57.1z"/><path d="M52.9,49.7l1.7,1.5c0.2,0.2,0.5,0.1,0.6-0.2l0.6-2.2c1-3.6-0.6-7.4-3.9-9.1l-0.2-0.1c-0.2-0.1-0.4,0-0.5,0.1L51.1,40  C49.3,43.3,50.1,47.3,52.9,49.7z"/><path d="M57.1,42.4l1.6,1.3c0.2,0.2,0.5,0.1,0.6-0.2l0.5-2c0.9-3.3-0.6-6.8-3.6-8.5L56,33c-0.2-0.1-0.4,0-0.5,0.1l-0.1,0.2  C53.8,36.4,54.5,40.1,57.1,42.4z"/><path d="M61,35.7l1.4,1.2c0.2,0.2,0.5,0.1,0.6-0.2l0.5-1.8c0.9-3.1-0.5-6.3-3.4-7.8l-0.1-0.1c-0.2-0.1-0.4,0-0.5,0.1l-0.1,0.1  C57.9,30.1,58.6,33.6,61,35.7z"/><path d="M64.9,29l1.2,1c0.2,0.2,0.5,0.1,0.6-0.2l0.4-1.5c0.8-2.8-0.5-5.8-3.1-7.2l-0.1,0c-0.2-0.1-0.4,0-0.5,0.1l0,0.1  C62,23.9,62.6,27.1,64.9,29z"/><path d="M68.7,22.4l1,0.9c0.2,0.2,0.5,0.1,0.6-0.2l0.4-1.3c0.7-2.6-0.5-5.3-2.8-6.5v0c-0.2-0.1-0.4,0-0.5,0.1v0  C66.2,17.7,66.7,20.6,68.7,22.4z"/><path d="M50.7,61.5c0,0-0.6,1.7-1.2,4.2c-0.3,1.3-0.6,2.8-0.9,4.4c-0.1,0.8-0.3,1.6-0.4,2.5c-0.1,0.8-0.2,1.7-0.2,2.6  c-0.1,0.9-0.1,1.7-0.1,2.6c0,0.8,0,1.7,0,2.5c0,0.8,0,1.6,0,2.3c0,0.7,0,1.4,0,2.1c0,0.6,0,1.2,0,1.8c0,0.5,0,1,0,1.4  c0,0.8-0.1,1.2-0.1,1.2l-0.2,0c0,0-0.2-0.4-0.4-1.2c-0.1-0.4-0.3-0.8-0.4-1.4c-0.1-0.5-0.3-1.1-0.4-1.8c-0.1-0.3-0.1-0.7-0.2-1  c0-0.4-0.1-0.7-0.1-1.1c-0.1-0.8-0.1-1.6-0.1-2.4c0-0.8,0.1-1.7,0.2-2.6c0.1-0.9,0.2-1.8,0.4-2.6c0.1-0.9,0.3-1.8,0.5-2.6  c0.2-0.9,0.4-1.7,0.6-2.5c0.2-0.8,0.4-1.6,0.7-2.3c0.2-0.7,0.5-1.4,0.7-2c0.9-2.5,1.7-4.1,1.7-4.1L50.7,61.5z"/><path d="M35.5,56.5l1.5-0.4c0.1,0,0.2-0.2,0.1-0.3l-1-1.1c-1.6-1.8-4.2-2.3-6.3-1.2l-0.2,0.1c-0.1,0.1-0.1,0.2-0.1,0.3l0.1,0.2  C30.8,56.1,33.2,57.1,35.5,56.5z"/><path d="M33.3,51.9l1.3-0.4c0.1,0,0.2-0.2,0.1-0.3l-0.9-1c-1.5-1.7-3.9-2.2-5.9-1.1l-0.1,0.1c-0.1,0.1-0.1,0.2-0.1,0.3l0.1,0.1  C28.8,51.5,31.1,52.5,33.3,51.9z"/><path d="M31,47.3l1.2-0.3c0.1,0,0.2-0.2,0.1-0.3l-0.8-0.9c-1.4-1.6-3.6-2-5.5-1l-0.1,0.1c-0.1,0.1-0.1,0.2-0.1,0.3l0.1,0.1  C26.9,47,29,47.9,31,47.3z"/><path d="M29,43.1l1.1-0.3c0.1,0,0.2-0.2,0.1-0.3l-0.7-0.8c-1.3-1.5-3.4-1.9-5.1-1l-0.1,0c-0.1,0.1-0.1,0.2-0.1,0.3l0,0.1  C25.1,42.8,27.1,43.7,29,43.1z"/><path d="M26.9,39l0.9-0.3c0.1,0,0.2-0.2,0.1-0.3l-0.6-0.7c-1.2-1.3-3.1-1.7-4.6-0.9l0,0c-0.1,0.1-0.1,0.2-0.1,0.3l0,0  C23.4,38.7,25.2,39.4,26.9,39z"/><path d="M24.9,34.8l0.8-0.2c0.1,0,0.2-0.2,0.1-0.3l-0.5-0.6c-1-1.2-2.8-1.6-4.2-0.8h0c-0.1,0.1-0.1,0.2-0.1,0.3l0,0  C21.7,34.5,23.3,35.2,24.9,34.8z"/><path d="M24.1,31.6l0.7,0.4c0.1,0.1,0.3,0,0.3-0.2l0.1-0.8c0.1-1.6-0.9-3.1-2.4-3.6h0c-0.1,0-0.2,0-0.3,0.1v0  C22,29.1,22.7,30.8,24.1,31.6z"/><path d="M39.5,54.4l-1.1,1c-0.1,0.1-0.3,0-0.3-0.1l-0.4-1.5c-0.6-2.3,0.4-4.8,2.5-5.9l0.2-0.1c0.1-0.1,0.2,0,0.3,0.1l0.1,0.2  C41.8,50.2,41.3,52.8,39.5,54.4z"/><path d="M36.9,50l-1,0.9c-0.1,0.1-0.3,0-0.3-0.1l-0.4-1.3c-0.6-2.2,0.4-4.4,2.4-5.5l0.1-0.1c0.1-0.1,0.2,0,0.3,0.1l0.1,0.1  C39.1,46.1,38.6,48.5,36.9,50z"/><path d="M34.4,45.5l-0.9,0.8c-0.1,0.1-0.3,0-0.3-0.1L32.8,45c-0.6-2,0.4-4.1,2.2-5.1l0.1-0.1c0.1-0.1,0.2,0,0.3,0.1l0.1,0.1  C36.4,41.9,36,44.2,34.4,45.5z"/><path d="M32,41.5l-0.8,0.7c-0.1,0.1-0.3,0-0.3-0.1l-0.3-1.1c-0.5-1.9,0.3-3.8,2-4.7l0.1,0c0.1-0.1,0.2,0,0.3,0.1l0,0.1  C33.9,38.1,33.5,40.2,32,41.5z"/><path d="M29.7,37.5L29,38.1c-0.1,0.1-0.3,0-0.3-0.1l-0.3-0.9c-0.5-1.7,0.3-3.5,1.9-4.3l0,0c0.1-0.1,0.2,0,0.3,0.1l0,0  C31.4,34.4,31.1,36.3,29.7,37.5z"/><path d="M27.4,33.4L26.8,34c-0.1,0.1-0.3,0-0.3-0.1l-0.2-0.8c-0.4-1.6,0.3-3.2,1.7-4h0c0.1-0.1,0.2,0,0.3,0.1v0  C28.9,30.6,28.6,32.4,27.4,33.4z"/><path d="M38.4,57c0,0,0.6,1.1,1.4,2.9c0.8,1.8,1.7,4.3,2.4,6.8c0.2,0.6,0.3,1.3,0.5,1.9c0.1,0.6,0.3,1.3,0.4,1.9  c0.1,0.6,0.1,1.2,0.1,1.8c0,0.6,0,1.1-0.1,1.6c-0.1,0.5-0.1,1-0.2,1.4c-0.1,0.4-0.2,0.7-0.3,1c-0.2,0.6-0.3,0.9-0.3,0.9l-0.1,0  c0,0,0-0.3,0-0.9c0-0.3,0-0.6,0-1c0-0.4-0.1-0.8-0.1-1.3c0-0.5-0.1-1-0.1-1.5c-0.1-0.5-0.1-1.1-0.2-1.7c-0.1-0.6-0.1-1.2-0.2-1.8  c-0.1-0.6-0.2-1.3-0.3-1.9c-0.5-2.5-1.3-5-1.9-6.9c-0.6-1.8-1.1-3-1.1-3L38.4,57z"/><text x="0" y="115" fill="#000000" font-size="5px" font-weight="bold" font-family="'Helvetica Neue', Helvetica, Arial-Unicode, Arial, Sans-serif">Created by orlangiodo</text><text x="0" y="120" fill="#000000" font-size="5px" font-weight="bold" font-family="'Helvetica Neue', Helvetica, Arial-Unicode, Arial, Sans-serif">from the Noun Project</text></svg>