<svg xmlns="http://www.w3.org/2000/svg" xmlns:xlink="http://www.w3.org/1999/xlink" version="1.1" x="0px" y="0px" viewBox="0 0 100 125" style="enable-background:new 0 0 100 100;" xml:space="preserve"><path d="M92,35.3c0,0.7,0,1.4,0,2.1c0,0.2,0,0.3-0.1,0.4c0,0.1-0.2,0.1-0.3,0.1c-0.1,0.1-0.1,0.3-0.3,0.4c-0.1,0.1-0.2,0.3-0.3,0.4  c-0.1,0.2-0.3,0.2-0.4,0c-0.1-0.2-0.2-0.4-0.4-0.5c-0.2-0.1-0.3-0.4-0.3-0.6c-0.2-0.2-0.3-0.6-0.5-0.8c-0.2,0.1-0.1,0.3-0.1,0.5  c-0.1-0.2-0.1-0.4-0.1-0.6C89,36.8,89,36.7,89,36.5c0,0,0-0.1,0-0.1c0,0,0-0.1,0-0.1c0,0-0.1,0-0.1-0.1c-0.8-1.7-1.8-3.4-3.2-4.7  c-0.5-0.5-1.1-0.9-1.6-1.4c-0.5-0.4-1-0.8-1.4-1.3c-0.3-0.4-0.4-0.4-0.7,0c-0.6,0.7-1.5,1.1-2.3,1.6c-0.6,0.4-1.3,0.8-1.9,1.3  c-0.2,0.2-0.5,0.3-0.7,0.5c-0.1,0.1-0.1,0.1-0.2,0.1c-0.4-0.2-0.7,0.2-1,0.4c-0.5,0.4-1,0.8-1.5,1.2c-0.7,0.6-1.6,1-2.4,1.5  c-0.2,0.1-0.4,0.2-0.5,0.3c-0.3,0.3-0.6,0.1-1,0.2c-0.1,0.1-0.2-0.2-0.2-0.3c0-0.8,0-1.5,0-2.3c0-1.4-0.1-2.7-0.1-4.1  c0-0.6-0.2-1.3-0.3-1.9c0-0.5-0.5-0.7-1-0.7c-0.5,0-0.9-0.3-1.3-0.4c-0.3-0.1-0.7-0.3-1-0.4l0,0c-0.2-0.1-0.4,0-0.5,0l0,0l-0.1,0  c0,0.1-0.1,0.1-0.1,0l0,0c-0.1,0-0.2,0-0.2-0.1c0,0,0,0,0,0l0,0l0,0c0,0,0,0,0,0c-0.3,0-0.7-0.1-1-0.1c-0.5-0.1-1-0.3-1.6-0.3  c-0.2,0-0.4-0.1-0.6-0.3c-0.2,0.1-0.5,0-0.7-0.1c-0.6-0.2-1.3-0.4-2-0.4c-0.3,0-0.6-0.2-0.9-0.3c-0.2-0.1-0.4-0.1-0.6-0.1  c0,0-0.1-0.1-0.1-0.1c-0.5,0-0.9-0.4-1.2-0.7c0-0.2,0.2-0.3,0.3-0.4c0.4-0.2,0.7-0.6,0.8-1c0.1-0.2,0.2-0.4,0.4-0.4  c0.3-0.1,0.6-0.3,0.9-0.6c0.1-0.2,0.4-0.3,0.6-0.3c0.5-0.1,0.9-0.4,1.3-0.6c0.3-0.2,0.7-0.4,1-0.5c0.6-0.1,1.1-0.6,1.6-0.9  c0.6-0.3,1.2-0.5,1.8-0.8c0.9-0.4,1.8-0.4,2.7-0.5c0.5-0.1,1.1-0.2,1.6-0.2c0.6-0.1,1.1-0.1,1.7-0.2c0.6-0.1,1.3,0,1.9,0.2  c0.5,0.1,1.1,0.3,1.5,0.6c0.1,0.1,0.3,0.1,0.5,0.1c0.2,0,0.5,0,0.7,0.1c0.4,0.2,0.7,0,1.1-0.2c0.2-0.1,0.4-0.3,0.5-0.5  c0.2-0.4,0.4-0.7,0.5-1.1c0.2-0.5,0.5-0.9,0.9-1.3c0.4-0.5,0.9-1,1.1-1.7c0.2-0.5,0.3-1.1,0.4-1.6c0-0.2,0.1-0.3,0.3-0.4  c0.2-0.1,0.4-0.3,0.4-0.5c0.2-0.6,0.5-1.2,0.5-1.9c0-0.3,0.2-0.5,0.4-0.5c0.3,0,0.3-0.2,0.4-0.4c0.1-0.3,0.3-0.5,0.6-0.7  c0.2-0.1,0.3,0,0.4,0.1c0.1,0.2,0.4-0.1,0.5,0.1h0c0,0,0.1,0,0.1,0l0,0c0,0,0.1,0,0.1,0c0.1,0.2,0.5,0.1,0.5,0.4  c0,0,0.1,0.1,0.1,0.1c0.5-0.2,0.8,0.4,1.3,0.3c0.1,0,0.3,0,0.5,0c0.2-0.1,0.4,0,0.4,0.2c0.1,0.5,0.3,1,0.2,1.5  c-0.2,0.8-0.3,1.6-0.6,2.4c-0.1,0.2-0.1,0.4,0,0.6c0.1,0.4,0,0.8-0.2,1.1c-0.3,0.7-0.6,1.4-0.9,2.1c-0.4,1-0.7,2-1.1,2.9  c-0.1,0.3-0.2,0.6-0.5,0.7c0.2,0.3,0.4,0.4,0.6,0.6c0.5,0.3,0.9,0.7,1.3,1.1c0.4,0.4,0.9,0.8,1.3,1.2c1,0.9,1.7,1.8,2.1,3.1  c0.2,0.6,0.3,1.1,0.6,1.6c0.3,0.4,0.3,0.8,0.5,1.2c0.4,1.2,0.8,2.4,1.2,3.7c0.1,0.5,0.4,1.1,0.3,1.6v0c0.1,0.2,0.1,0.4,0.1,0.6v0  C92,35,92,35.2,92,35.3z M89.2,41.5c0,0.7-0.1,1.4-0.1,2.1c-0.1,1.1-0.1,2.3-0.2,3.4c0,0.2,0,0.4-0.1,0.5c0,2.3-0.3,4.7-1,6.9  c-0.1,0.2-0.2,0.4,0,0.7c0.1,0.1,0,0.2-0.1,0.4c-0.7,1.7-1.2,3.4-1.9,5c-0.7,1.6-1.2,3.3-1.9,5c-0.5,1.1-1.1,2.2-1.8,3.1  c-0.3,0.4-0.6,0.7-0.9,1.2c-0.1,0.2-0.5,0.1-0.6,0.3c-0.1,0.3-0.2,0.7-0.4,0.9c-0.2,0.2-0.2,0.6-0.5,0.8c-0.2,0.5-0.4,1-0.8,1.3  c-0.2,0.2-0.2,0.4-0.4,0.6c0,0,0,0.1,0,0.1c0,0.1-0.1,0.2-0.2,0.2c-0.2,0.5-0.4,0.9-0.9,1.1c0,0.1,0,0.2-0.1,0.3  c0,0-0.1,0.1-0.1,0.1c-0.2,0.2-0.5,0.4-0.5,0.7c0,0.1-0.1,0.2-0.2,0.2c0,0.1-0.1,0.1-0.1,0.1c-0.2,0.5-0.6,0.8-1,1.1  c0,0,0,0.1,0,0.1c0,0.2-0.1,0.3-0.3,0.3c-0.1,0-0.1,0.1-0.2,0.1c0,0.1,0,0.2-0.1,0.3c0,0.1-0.1,0.2-0.2,0.2  c-0.2,0.1-0.2,0.5-0.4,0.6c0,0.1-0.1,0.1-0.2,0.1c0,0.1,0,0.1-0.1,0.1c0,0,0,0.1,0,0.1c0,0.1,0,0.2-0.1,0.2c0,0.1,0,0.1-0.1,0.1  c-0.3,0.3-0.6,0.6-0.9,0.9c-0.4,0.4-0.8,0.8-1.3,1.1c-0.3,0.3-0.6,0.6-1,0.7c-0.3,0.2-0.5,0.4-0.8,0.5c-0.1,0-0.3,0.1-0.4,0.2  c-0.7,0.6-1.5,0.9-2.2,1.3c-0.7,0.3-1.3,0.8-2,1.1c-0.3,0.1-0.5,0.2-0.7,0.4c-0.3,0.3-0.7,0.4-1.1,0.6c-0.5,0.2-0.8,0.5-1.2,0.8  c-0.4,0.3-0.8,0.5-1.2,0.6c-0.8,0.3-1.5,0.7-2.3,1.1c-0.7,0.4-1.5,0.7-2.2,1c-0.3,0.2-0.6,0.3-0.9,0.3c-0.5,0.2-1,0.3-1.5,0.5  c-0.3,0.1-0.5,0.2-0.8,0.2c-0.7,0-1.4,0.1-2.1,0.2c-0.6,0.1-1.2,0.3-1.7,0.4c-0.8,0.2-1.6,0.3-2.3,0.6c-0.5,0.2-1,0.1-1.6,0.1  c-0.8,0-1.6,0-2.4,0c-0.6,0-1.2-0.2-1.8,0.1c-0.1,0-0.2,0-0.2-0.1c-0.9,0-1.7-0.2-2.5-0.2c-0.1,0-0.2-0.1-0.3-0.1  c-0.6,0-1.3-0.1-1.9-0.2c-0.7,0-1.3-0.1-2-0.3c-0.4-0.1-0.9-0.2-1.3-0.4c0,0-0.1,0-0.1,0l-0.1,0l-0.1,0C31.9,91.1,31.5,91,31,91  c-0.1,0-0.2,0-0.3-0.1c-0.5-0.1-1.1-0.2-1.5-0.5c-0.4-0.1-0.7-0.3-1-0.4c-0.2-0.1-0.3-0.1-0.4-0.2c-0.3,0-0.7,0-1-0.2l-0.1,0l0,0  c0,0-0.1,0-0.1,0c-0.1,0-0.2,0-0.2-0.1c0,0-0.1,0-0.1,0c-0.1,0-0.2,0-0.2-0.1c0,0-0.1,0-0.1,0c-0.1,0-0.1,0-0.1-0.1  c-0.1,0-0.2-0.1-0.3-0.1c-0.1,0-0.2,0-0.2-0.1c-0.3-0.1-0.5-0.2-0.8-0.3c-0.2,0-0.4-0.1-0.5-0.2c-0.2,0-0.4-0.1-0.6-0.2  c-0.1,0-0.2,0-0.2-0.1c-0.8-0.2-1.4-0.6-2.1-1c-1-0.6-2-1.1-3-1.7c-0.5-0.3-0.9-0.7-1.4-1c-0.1,0-0.2,0-0.2-0.1  c-0.1,0-0.2,0-0.2-0.1c-0.1,0-0.1,0-0.1-0.1c-0.5-0.3-0.9-0.6-1.2-1c-0.1,0-0.1,0-0.1-0.1c-0.2-0.1-0.3-0.3-0.4-0.5  c-0.3-0.2-0.5-0.5-0.7-0.8c-0.2-0.2-0.4-0.4-0.5-0.6C13,81,13,81,13,80.9c-0.5-0.7-0.9-1.4-1.4-2.1c-0.2-0.2-0.4-0.5-0.5-0.8  C11.1,78,11,78,11,77.9c-0.2-0.3-0.4-0.6-0.5-0.9c-0.4-0.5-0.6-1-0.9-1.5c-0.1-0.2-0.2-0.4-0.3-0.6c-0.1-0.1-0.1-0.2-0.1-0.3  c-0.1,0-0.1-0.1-0.1-0.2c-0.2-0.3-0.3-0.6-0.3-0.9c-0.1-0.1-0.1-0.3-0.1-0.4c-0.3-0.9-0.6-1.7-0.7-2.6c0-0.5-0.1-1,0-1.5  c0-0.3,0-0.7,0-1c0,0,0-0.1,0-0.1c0-0.5,0-1.1,0.1-1.6c0-0.1,0-0.1,0-0.2c0-1,0.1-2,0.2-3c0-0.9,0.2-1.9,0.4-2.8  c0-0.2,0.1-0.4,0.2-0.6c0-0.1,0-0.2,0.1-0.3c0-0.4,0.1-0.7,0.2-1c0.4-0.9,0.7-1.8,1.1-2.7c0-0.2,0.1-0.3,0.2-0.3  c0-0.1,0-0.1,0.1-0.1c0.3-0.8,0.8-1.6,1.3-2.4c2.2-3.6,5.4-6.6,8.5-9.5c0.2-0.2,0.5-0.4,0.8-0.6c0.2-0.2,0.5-0.3,0.7-0.5  c0.5-0.3,0.9-0.7,1.5-0.9c0.8-0.1,1.4-0.6,2.1-1c0.7-0.4,1.3-0.8,2.1-0.9c0.5-0.1,1-0.4,1.5-0.6c0.5-0.2,0.9-0.3,1.4-0.3  c0.2,0,0.4,0,0.5-0.1C40.5,34.1,49,38,55.2,27.5c0.2-0.3,0.5-0.7,0.7-1c0.3,0.2,0.6,0.3,1,0.4c0.2,0.1,0.5,0.2,0.7,0.2l0.5,0.1  c0.3,0.1,0.7,0.3,1.3,0.3c0.5,0,0.9,0.1,1.2,0.3c0.4,0.1,0.7,0.2,1.1,0.3c0.4,0.2,1,0.3,1.7,0.2c0.1,0,0.4,0.1,0.6,0.1  c0.2,0.1,0.4,0.1,0.6,0.2c0.1,0,0.3,0.1,0.4,0.1c0.2,0,0.4,0.1,0.7,0.1c0,0,0,0,0,0c0.3,0.1,0.7,0.3,1.1,0.4l0.2,0.1  c0.1,0,0.1,0,0.2,0.1c0,0,0,0.1,0,0.1l0,0.6c0.1,1.1,0.1,2.2,0.1,3.3c0,0.5,0,0.9,0,1.4c0,0.3,0,0.6,0,0.9c0,1.2,0.5,2.3,1.5,2.9  c0.7,0.4,1.5,0.5,2.3,0.4c0.5,0,1.4-0.1,2.2-0.8l0.1-0.1c0.2-0.1,0.4-0.2,0.5-0.3c0.7-0.4,1.5-0.8,2.3-1.5l0.4-0.3  c0.3-0.2,0.5-0.4,0.8-0.6c0.6-0.1,1.3-0.4,1.8-0.9c0.2-0.1,0.3-0.2,0.5-0.3c0.4-0.3,0.9-0.7,1.6-1.1l0.4-0.3  c0.2-0.1,0.3-0.2,0.5-0.3c0,0,0.1,0.1,0.1,0.1c0.4,0.4,1,0.8,1.5,1.3c0.9,0.8,1.6,1.9,2.4,3.5c0,0.1,0.1,0.2,0.1,0.3  c0.1,0.4,0.2,0.9,0.5,1.4c0.2,0.3,0.5,0.6,0.8,0.9c0.1,0.2,0.3,0.4,0.5,0.6c0.1,0.1,0.1,0.1,0.2,0.2C88.5,41.1,88.8,41.3,89.2,41.5z   M8.5,68.8C8.5,68.7,8.5,68.7,8.5,68.8C8.5,68.7,8.5,68.8,8.5,68.8C8.5,68.8,8.5,68.8,8.5,68.8z M9.2,74.3  C9.2,74.3,9.1,74.3,9.2,74.3L9.2,74.3C9.2,74.4,9.2,74.3,9.2,74.3z M10.3,76.4C10.3,76.4,10.3,76.4,10.3,76.4  C10.3,76.4,10.3,76.4,10.3,76.4C10.3,76.4,10.3,76.4,10.3,76.4C10.3,76.4,10.3,76.4,10.3,76.4z M13.3,81c-0.1,0-0.1,0-0.2,0  c0,0,0,0,0,0c0,0,0,0,0,0h0c0,0,0,0,0,0C13.2,81,13.3,81.1,13.3,81C13.3,81.1,13.3,81,13.3,81z M16.5,82.7  C16.5,82.7,16.5,82.7,16.5,82.7C16.5,82.7,16.5,82.7,16.5,82.7C16.5,82.7,16.5,82.7,16.5,82.7z M26.7,88.1  C26.7,88.1,26.7,88.1,26.7,88.1C26.7,88.1,26.7,88.1,26.7,88.1C26.7,88.1,26.7,88.1,26.7,88.1C26.7,88.1,26.7,88.1,26.7,88.1z   M50,46.7c-0.1-0.2-0.3-0.2-0.4-0.2c0,0-0.1,0-0.1,0c0,0-0.1-0.1,0-0.1c0.4-0.4,0.4-0.6,0.1-1c-0.1-0.1-0.2-0.3-0.1-0.4  c0.1-0.1,0-0.3,0.1-0.4c0.1-0.1,0.1-0.1,0-0.1c0-0.1,0-0.1-0.1-0.1c0-0.1,0-0.1-0.1-0.1v0l0,0c-0.2-0.2-0.5,0-0.7,0  c-0.6,0-1.1-0.3-1.6-0.4l0,0c-0.1-0.2-0.4-0.1-0.4-0.2c-0.1-0.3-0.3-0.3-0.6-0.3c-0.1,0-0.2,0-0.2,0c-0.1,0-0.2,0-0.2,0l0,0  c-0.1-0.1-0.2-0.1-0.3-0.1c-0.4,0.1-0.7,0.1-1.1,0.1c-0.4,0-0.8,0-1.2,0c-0.7,0-1.5,0-2.2,0c-0.9,0-1.7,0.1-2.6,0.3  c-0.6,0.2-1.3,0.3-1.9,0.5c-0.5,0.2-1.1,0.2-1.5,0.5c-0.4,0.3-0.9,0.4-1.3,0.5c-0.1,0-0.2,0.1-0.3,0.1c-0.4,0.2-0.8,0.4-1.2,0.6  c-0.8,0.3-1.5,0.6-2.2,1c-1,0.5-2,0.7-3,1.2c-0.4,0.2-0.8,0.4-1.2,0.7c-0.6,0.4-1.1,0.8-1.7,1.1c-0.2,0.1-0.5,0.3-0.6,0.5  c-0.6,0.1-0.9,0.5-1.4,0.8c-0.5,0.4-0.8,0.9-1.3,1.3c-0.4,0.3-0.3,0.3-0.2,0.7c-0.8,0.7-1.4,1.5-2,2.4c-0.1,0.2-0.3,0.4,0,0.6  c0.3,0.3,0.1,0.4-0.2,0.5c-0.2,0.1-0.4,0.1-0.3,0.5l0,0c0.1,0,0.2,0,0.2,0.1c0,0,0,0,0,0l0,0c0,0,0,0,0,0c0.1,0.1,0.3,0,0.5,0.1l0,0  c0.1,0.1,0.2,0,0.3,0.1c0.1,0.1,0.2,0.1,0.3,0.2c0.4,0,0.7,0.1,1,0.3c0.2,0.2,0.4,0,0.6,0.1c0.2,0,0.4,0,0.6-0.1  c0.6-0.4,1.1-0.9,1.7-1.3c0.2-0.1,0.3-0.3,0.5,0c0.1,0.1,0.2,0,0.2,0c0.1-0.1,0.2-0.2,0.3-0.3c0.6-0.6,1.3-1,2.1-1.2  c0.1,0,0.1-0.1,0.2,0c0.4,0,0.7-0.2,0.9-0.4c0.5-0.4,0.9-0.7,1.4-1.1c0.4-0.3,0.8-0.5,1.1-0.9c0.1-0.1,0.2-0.1,0.2-0.1  c1-0.3,1.8-0.8,2.8-1.1c0.5-0.2,1-0.6,1.5-0.6c0,0,0.1-0.1,0.1-0.1c0.1,0,0.2,0,0.3,0c0.7-0.3,1.4-0.6,2.1-0.9  c0.2-0.1,0.5-0.2,0.7-0.3c0.4,0,0.7-0.3,1-0.4c0.3,0,0.6-0.1,0.8-0.3c0.3,0,0.7-0.2,1-0.3c0.7-0.2,1.5-0.4,2.2-0.4  c0.1,0,0.2,0,0.2,0c0.3-0.3,0.7-0.2,1.1-0.3c0.3-0.1,0.7,0,1-0.2c0.7,0.1,1.4,0,2.1,0h0c0.2,0,0.5,0,0.7,0c0.8,0.1,1.5,0,2.1-0.5  C49.8,47,50,46.9,50,46.7z"/><text x="0" y="115" fill="#000000" font-size="5px" font-weight="bold" font-family="'Helvetica Neue', Helvetica, Arial-Unicode, Arial, Sans-serif">Created by Prangtip Fungtammasarn</text><text x="0" y="120" fill="#000000" font-size="5px" font-weight="bold" font-family="'Helvetica Neue', Helvetica, Arial-Unicode, Arial, Sans-serif">from the Noun Project</text></svg>