<svg xmlns="http://www.w3.org/2000/svg" xmlns:xlink="http://www.w3.org/1999/xlink" version="1.0" x="0px" y="0px" viewBox="0 0 50 62.5" enable-background="new 0 0 50 50" xml:space="preserve"><g><g><path fill="#000000" d="M30.641,9.123c2.895,0.988,5.234,3.901,5.781,9.937c0.934,10.312,1.24,24.845-10.236,29.122    c15.893,2.772,18.455-18.602,17.998-29.4C43.873,11.39,36.475,8.333,30.641,9.123z"/></g><g><path fill="#000000" d="M19.627,9.288c-2.894,0.989-5.233,3.904-5.775,9.941c-0.927,10.313-1.225,24.845,10.254,29.115    C7.635,50.719,5.369,29.899,5.819,19.101C6.126,11.708,13.793,8.501,19.627,9.288z"/></g><g><path fill="#000000" d="M17.716,13.119C12.8,24.03,15.122,49.272,24.594,48.998c10.431-0.699,10.378-18.954,9.908-29.159    C33.83,5.232,20.603,6.712,17.716,13.119z"/></g><path fill="#000000" d="M15.736,8.339c0,0,2.811-0.57,5.089,0.076c0,0,3.619-2.012,8.775-0.228c0,0,3.309-0.481,4.102,0.114   c0,0-3.268-2.454-7.33-2.355c0,0-0.875-3.038,0-4.938L23.65,1l-1.496,4.908C22.154,5.908,17.916,6.258,15.736,8.339z"/></g><text x="0" y="65" fill="#000000" font-size="5px" font-weight="bold" font-family="'Helvetica Neue', Helvetica, Arial-Unicode, Arial, Sans-serif">Created by Mister Pixel</text><text x="0" y="70" fill="#000000" font-size="5px" font-weight="bold" font-family="'Helvetica Neue', Helvetica, Arial-Unicode, Arial, Sans-serif">from the Noun Project</text></svg>