<svg xmlns="http://www.w3.org/2000/svg" xmlns:xlink="http://www.w3.org/1999/xlink" version="1.1" preserveAspectRatio="none" x="0px" y="0px" viewBox="0 0 100 125"><defs><g id="a"><path fill="#000000" stroke="none" d=" M 4.05 -26.7 Q 2.3 -29.5 1.5 -31.35 0.7 -33.25 0.05 -35.4 -0.65 -37.5 -0.7 -37.6 -1.25 -39.05 -2.55 -38.7 -5.85 -38.1 -6.6 -37.95 -7.45 -37.65 -7.5 -36.6 -10.4 -25.25 -12.15 -22.45 -13.95 -19.65 -16.3 -16.55 -18.7 -13.45 -22.4 -10.8 L -22.75 -10.55 Q -24.5 -9.75 -26.1 -8.85 -37.95 -2.1 -37.95 8.9 -37.95 12.8 -36.4 17.05 -34.85 21.3 -32.85 24.1 -30.9 26.9 -25.5 29.95 -20.05 33 -18.8 33.45 -17.55 33.9 -16.05 35.1 -14.5 36.35 -10.3 37.9 -6.1 39.5 -3.05 38.45 0.05 37.4 0.3 37.7 0.65 38.05 4.2 38.55 7.7 39.1 10.6 37.85 13.5 36.65 15.55 36.9 17.55 37.2 23.1 34.8 28.55 32.4 33.3 26.85 37.95 21.25 37.95 12.4 37.95 -0.2 27.1 -7.6 25.05 -9.65 21.8 -12.1 14.75 -17.05 11.75 -19.35 9.95 -20.55 8.5 -21.75 5.8 -23.9 4.05 -26.7 M 10.6 -10.25 Q 12.25 -8.65 15.35 -5.55 20.65 0.35 22.4 4.35 24.05 8.15 24.7 13.1 25.3 18 23 24.3 20.6 30.5 14.1 33.5 L 13.95 33.5 Q 19.05 30.5 21.4 24.85 23.75 19.2 23.2 14.05 22.6 8.85 20.95 5.05 19.25 1.3 15.15 -3.65 11.85 -7.55 9.35 -11.65 9.95 -11 10.6 -10.25 M -2.05 -8.05 Q -2.75 -6.65 -4.3 -2.2 -5.85 2.2 -6 2.95 -6.15 3.65 -6.3 5.65 -6.55 7.65 -6.35 10.35 -6.2 13.05 -3.85 24.25 -2.6 30.3 -1.9 32.8 -4.25 25.7 -5.55 21.7 -8.25 13.45 -8.25 8.6 -8.25 1.3 -4.8 -5.6 -1.35 -12.5 -1.35 -17.7 -1.35 -22.9 -3.1 -29.2 -2.45 -27.7 -1.45 -23.9 -0.5 -20.2 -0.35 -18.45 -0.3 -16.7 -0.85 -13.1 -1.45 -9.5 -2.05 -8.05 M -18.35 -6.1 Q -15.8 -8.1 -13.2 -11.95 -16.6 -6.25 -18.5 -4.8 -23.95 -0.65 -26.15 3.45 -28 7.05 -28 11.65 -28 15.7 -25.35 21.4 -23.0734375 26.24375 -20.25 29.5 -25.3830078125 23.8974609375 -27.2 21 -29.95 16.35 -29.95 11.6 -29.95 6.5 -27.7 3.05 -25.4 -0.45 -18.35 -6.1 M -1.25 34.65 L -1.35 34.65 -1.35 34.6 -1.25 34.65 Z"/></g></defs><g transform="matrix( 1.150146484375, 0, 0, 1.150146484375, 50,50) "><g transform="matrix( 1, 0, 0, 1, 0,0) "><use xlink:href="#a"/></g></g><text x="0" y="115" fill="#000000" font-size="5px" font-weight="bold" font-family="'Helvetica Neue', Helvetica, Arial-Unicode, Arial, Sans-serif">Created by Pencil</text><text x="0" y="120" fill="#000000" font-size="5px" font-weight="bold" font-family="'Helvetica Neue', Helvetica, Arial-Unicode, Arial, Sans-serif">from the Noun Project</text></svg>