<svg xmlns:dc="http://purl.org/dc/elements/1.1/" xmlns:cc="http://creativecommons.org/ns#" xmlns:rdf="http://www.w3.org/1999/02/22-rdf-syntax-ns#" xmlns:svg="http://www.w3.org/2000/svg" xmlns="http://www.w3.org/2000/svg" xmlns:sodipodi="http://sodipodi.sourceforge.net/DTD/sodipodi-0.dtd" xmlns:inkscape="http://www.inkscape.org/namespaces/inkscape" viewBox="0 0 48 60.00000125" version="1.1" x="0px" y="0px"><g transform="translate(0,-1004.3622)"><path style="color:#000000;font-style:normal;font-variant:normal;font-weight:normal;font-stretch:normal;font-size:medium;line-height:normal;font-family:sans-serif;text-indent:0;text-align:start;text-decoration:none;text-decoration-line:none;text-decoration-style:solid;text-decoration-color:#000000;letter-spacing:normal;word-spacing:normal;text-transform:none;direction:ltr;block-progression:tb;writing-mode:lr-tb;baseline-shift:baseline;text-anchor:start;white-space:normal;clip-rule:nonzero;display:inline;overflow:visible;visibility:visible;opacity:1;isolation:auto;mix-blend-mode:normal;color-interpolation:sRGB;color-interpolation-filters:linearRGB;solid-color:#000000;solid-opacity:1;fill:#000000;fill-opacity:1;fill-rule:evenodd;stroke:none;stroke-width:2;stroke-linecap:round;stroke-linejoin:round;stroke-miterlimit:4;stroke-dasharray:none;stroke-dashoffset:0;stroke-opacity:1;color-rendering:auto;image-rendering:auto;shape-rendering:auto;text-rendering:auto;enable-background:accumulate" d="m 35.375,1008.3652 c -0.870056,-0.027 -1.709982,0.1298 -2.474609,0.3555 -1.469148,0.4332 -2.955337,1.1302 -4.150391,2.2363 -1.265664,1.1715 -2.052094,2.6876 -2.658203,4.1211 -0.890312,2.1061 -1.559543,4.4234 -1.591797,6.8047 -0.01795,1.3245 0.236889,2.5935 0.564453,3.7969 a 1.0001,1.0001 0 0 0 0.529297,0.6367 c 0.242602,0.1174 0.462753,0.2401 0.650391,0.3711 0.602114,0.4207 1.128076,1.1127 1.529297,1.873 0.610473,1.1569 1.032494,2.441 1.0625,3.6504 0.0083,0.3337 -0.01971,0.6835 -0.07227,1.0489 a 1.0001,1.0001 0 0 0 0.185547,0.7382 c 0.883127,1.1927 1.901818,2.3382 3.132812,3.2696 1.391261,1.0526 3.019694,1.9918 4.847657,2.3711 1.848174,0.3834 3.800273,0.2587 5.582031,-0.2657 1.326055,-0.3904 2.491953,-1.1402 3.46875,-1.996 0.673738,-0.5903 1.457509,-1.3382 1.826172,-2.4336 0.342306,-1.0171 0.149004,-1.9659 0.02539,-2.6993 -0.165896,-0.9841 -0.435869,-2.0506 -1.041015,-3.0156 -0.717472,-1.1442 -1.740218,-1.7561 -2.375,-2.3828 -0.852102,-0.8412 -1.693613,-1.3978 -2.085938,-2.0234 -0.645948,-1.0302 -1.035005,-2.3 -1.21289,-3.5821 -0.137906,-0.9941 0.136185,-2.1943 0.208984,-3.5761 0.05612,-1.0652 0.555701,-2.4613 0.171875,-4.0528 -0.326751,-1.3548 -1.058549,-2.6281 -2.083985,-3.5859 -0.887145,-0.8286 -2.014456,-1.3461 -3.162109,-1.5645 -0.240355,-0.046 -0.484189,-0.067 -0.728515,-0.08 a 1.0001,1.0001 0 0 0 -0.146485,-0.016 c -6.48e-4,0 -0.0013,1e-4 -0.002,0 z m -0.06055,2 a 1.0001,1.0001 0 0 0 0.002,0 c 0.189859,0.01 0.376559,0.026 0.560547,0.061 0.800303,0.1522 1.61028,0.5379 2.171875,1.0625 0.715735,0.6685 1.272577,1.6326 1.503906,2.5918 0.205598,0.8525 -0.148491,2.0338 -0.224609,3.4785 -0.05943,1.1281 -0.398896,2.4593 -0.191406,3.9551 0.20702,1.4921 0.657073,3.0268 1.5,4.3711 0.717425,1.144 1.740119,1.756 2.375,2.3828 0.852198,0.8413 1.693655,1.3978 2.085937,2.0234 0.387394,0.6178 0.617311,1.4285 0.761719,2.2852 0.121783,0.7224 0.181338,1.3483 0.05273,1.7304 -0.168071,0.4994 -0.657667,1.0475 -1.25,1.5664 -0.813641,0.713 -1.757776,1.2997 -2.716797,1.5821 l 0,-0 c -1.480719,0.4358 -3.125885,0.5363 -4.609374,0.2285 -1.407978,-0.2921 -2.802933,-1.0666 -4.046876,-2.0078 -0.939811,-0.711 -1.754263,-1.6431 -2.511718,-2.6328 0.02724,-0.29 0.06614,-0.5744 0.05859,-0.8789 -0.04037,-1.6274 -0.578523,-3.1793 -1.292969,-4.5332 -0.496864,-0.9416 -1.175371,-1.8974 -2.152344,-2.5801 -0.148823,-0.104 -0.301791,-0.1733 -0.453125,-0.2597 -0.247539,-0.9802 -0.450096,-1.9493 -0.4375,-2.8789 0.02738,-2.0215 0.609644,-4.1037 1.433594,-6.0528 0.557427,-1.3184 1.245804,-2.5746 2.173828,-3.4336 0.888888,-0.8227 2.103001,-1.4147 3.359375,-1.7851 0.620381,-0.1832 1.265049,-0.2919 1.847656,-0.2735 z"/><path style="color:#000000;font-style:normal;font-variant:normal;font-weight:normal;font-stretch:normal;font-size:medium;line-height:normal;font-family:sans-serif;text-indent:0;text-align:start;text-decoration:none;text-decoration-line:none;text-decoration-style:solid;text-decoration-color:#000000;letter-spacing:normal;word-spacing:normal;text-transform:none;direction:ltr;block-progression:tb;writing-mode:lr-tb;baseline-shift:baseline;text-anchor:start;white-space:normal;clip-rule:nonzero;display:inline;overflow:visible;visibility:visible;opacity:1;isolation:auto;mix-blend-mode:normal;color-interpolation:sRGB;color-interpolation-filters:linearRGB;solid-color:#000000;solid-opacity:1;fill:#000000;fill-opacity:1;fill-rule:evenodd;stroke:none;stroke-width:2;stroke-linecap:round;stroke-linejoin:round;stroke-miterlimit:4;stroke-dasharray:none;stroke-dashoffset:0;stroke-opacity:1;color-rendering:auto;image-rendering:auto;shape-rendering:auto;text-rendering:auto;enable-background:accumulate" d="m 36.675781,1018.3633 a 1.0001,1.0001 0 0 0 -0.888672,0.6543 c 0,0 -0.15897,0.41 -0.326171,0.9258 -0.167202,0.5157 -0.352448,1.1102 -0.408204,1.6972 -0.09531,1.0033 -0.09578,2.1242 0.302735,3.2188 0.398467,1.095 1.122385,1.9727 1.847656,2.709 0.415153,0.4215 0.947692,0.7855 1.414063,1.0976 0.46637,0.3121 0.855468,0.5469 0.855468,0.5469 a 1.0001,1.0001 0 1 0 1.029297,-1.7149 c 0,0 -0.351041,-0.2114 -0.773437,-0.4941 -0.422397,-0.2827 -0.926526,-0.6621 -1.101563,-0.8398 -0.624555,-0.634 -1.149345,-1.3199 -1.392578,-1.9883 -0.243187,-0.668 -0.27223,-1.495 -0.191406,-2.3457 0.02124,-0.2237 0.170807,-0.8084 0.320312,-1.2696 0.149506,-0.4611 0.289063,-0.8261 0.289063,-0.8261 a 1.0001,1.0001 0 0 0 -0.976563,-1.3711 z"/><path style="color:#000000;font-style:normal;font-variant:normal;font-weight:normal;font-stretch:normal;font-size:medium;line-height:normal;font-family:sans-serif;text-indent:0;text-align:start;text-decoration:none;text-decoration-line:none;text-decoration-style:solid;text-decoration-color:#000000;letter-spacing:normal;word-spacing:normal;text-transform:none;direction:ltr;block-progression:tb;writing-mode:lr-tb;baseline-shift:baseline;text-anchor:start;white-space:normal;clip-rule:nonzero;display:inline;overflow:visible;visibility:visible;opacity:1;isolation:auto;mix-blend-mode:normal;color-interpolation:sRGB;color-interpolation-filters:linearRGB;solid-color:#000000;solid-opacity:1;fill:#000000;fill-opacity:1;fill-rule:evenodd;stroke:none;stroke-width:2.00000024;stroke-linecap:round;stroke-linejoin:round;stroke-miterlimit:4;stroke-dasharray:none;stroke-dashoffset:0;stroke-opacity:1;color-rendering:auto;image-rendering:auto;shape-rendering:auto;text-rendering:auto;enable-background:accumulate" d="m 23.824219,1023.8691 c -1.386853,-0.066 -2.792393,0.3054 -3.97461,1.0215 -1.391664,0.843 -2.028095,2.1768 -2.740234,2.9629 -0.923954,1.0199 -1.585441,2.0565 -2.378906,2.6524 -1.025486,0.7699 -2.185357,1.3806 -3.347657,1.6367 -0.699977,0.1545 -1.6644359,-0.059 -2.8476558,-0.082 -0.8718671,-0.017 -2.0080231,-0.3253 -3.3164062,-0.037 -0.9851101,0.2172 -1.8018473,0.7198 -2.5507812,1.2246 a 1.0001001,1.0001001 0 0 0 -0.3007813,0.1446 c -0.6022304,0.425 -1.40651003,0.9539 -1.88671875,1.9082 -0.51774005,1.0292 -0.50668547,2.112 -0.4609375,3.0078 0.06631664,1.2986 0.33740193,2.6562 0.97070313,3.8809 0.85126062,1.6459 2.10128442,3.1397 3.64257812,4.2011 1.5248765,1.0503 3.3088883,1.5616 5.0078125,1.8242 1.892998,0.2924 3.797085,0.1124 5.582031,-0.2187 1.927913,-0.3578 3.789889,-1.0224 5.529297,-1.8672 1.694888,-0.8233 3.504848,-1.7675 4.958985,-3.2519 1.657487,-1.6922 2.831363,-3.7927 3.705078,-5.9063 0.594603,-1.4384 1.12391,-3.0622 1.082031,-4.7871 -0.03955,-1.6284 -0.5659,-3.1845 -1.267578,-4.543 -0.48779,-0.9445 -1.153792,-1.9022 -2.117188,-2.5898 -0.943606,-0.6736 -2.087569,-1.1249 -3.289062,-1.1817 z m -0.0957,1.9981 c 0.746097,0.035 1.569232,0.3441 2.222656,0.8105 a 1.0001001,1.0001001 0 0 0 0,0 c 0.588688,0.4202 1.107016,1.1142 1.501953,1.8789 0.600584,1.1627 1.015294,2.4538 1.044922,3.6738 0.03092,1.2735 -0.381735,2.6471 -0.929688,3.9727 -0.809673,1.9586 -1.881397,3.8383 -3.287109,5.2734 -1.163657,1.1879 -2.754503,2.0501 -4.404297,2.8516 -1.605274,0.7796 -3.302318,1.3825 -5.019531,1.7011 -1.65834,0.3077 -3.34285,0.4491 -4.9101564,0.2071 -1.5138834,-0.234 -3.0121385,-0.692 -4.1796875,-1.4961 -1.2307589,-0.8476 -2.2910824,-2.1 -3,-3.4707 -0.4594252,-0.8884 -0.6945244,-1.9781 -0.75,-3.0645 -0.040391,-0.7908 0.011677,-1.534 0.25,-2.0078 0.1820218,-0.3617 0.6593992,-0.752 1.2480469,-1.168 a 1.0001001,1.0001001 0 0 0 0.00586,-0 c 0.7019241,-0.4953 1.4315432,-0.8975 2.1269531,-1.0507 0.7004053,-0.1544 1.6646958,0.061 2.8476563,0.084 0.8716077,0.017 2.0075932,0.3241 3.3164062,0.035 1.532775,-0.3377 2.924706,-1.0934 4.119141,-1.9902 1.198952,-0.9004 1.905226,-2.0749 2.660156,-2.9082 0.966743,-1.0673 1.55919,-2.1501 2.294922,-2.5957 0.832113,-0.5041 1.887939,-0.7799 2.841797,-0.7344 z"/><path style="color:#000000;font-style:normal;font-variant:normal;font-weight:normal;font-stretch:normal;font-size:medium;line-height:normal;font-family:sans-serif;text-indent:0;text-align:start;text-decoration:none;text-decoration-line:none;text-decoration-style:solid;text-decoration-color:#000000;letter-spacing:normal;word-spacing:normal;text-transform:none;direction:ltr;block-progression:tb;writing-mode:lr-tb;baseline-shift:baseline;text-anchor:start;white-space:normal;clip-rule:nonzero;display:inline;overflow:visible;visibility:visible;opacity:1;isolation:auto;mix-blend-mode:normal;color-interpolation:sRGB;color-interpolation-filters:linearRGB;solid-color:#000000;solid-opacity:1;fill:#000000;fill-opacity:1;fill-rule:evenodd;stroke:none;stroke-width:2.00000024;stroke-linecap:round;stroke-linejoin:round;stroke-miterlimit:4;stroke-dasharray:none;stroke-dashoffset:0;stroke-opacity:1;color-rendering:auto;image-rendering:auto;shape-rendering:auto;text-rendering:auto;enable-background:accumulate" d="m 20.001953,1032.3633 a 1.0001001,1.0001001 0 0 0 -0.878906,0.5176 c 0,0 -0.838462,1.3622 -1.150391,1.6738 -0.584849,0.5845 -1.230037,1.094 -1.93164,1.3808 a 1.0001001,1.0001001 0 0 0 0,0 c -0.701358,0.2869 -1.600586,0.4013 -2.515625,0.4238 -0.560711,0.014 -2.316407,-0.2949 -2.316407,-0.2949 a 1.0001001,1.0001001 0 1 0 -0.390625,1.9609 c 0,0 1.609547,0.3617 2.75586,0.334 1.037025,-0.025 2.163053,-0.1399 3.224609,-0.5742 1.061309,-0.4339 1.900386,-1.1293 2.587891,-1.8164 0.800713,-0.8 1.476562,-2.1016 1.476562,-2.1016 a 1.0001001,1.0001001 0 0 0 -0.861328,-1.5058 z"/></g><text x="0" y="63.000001" fill="#000000" font-size="5px" font-weight="bold" font-family="'Helvetica Neue', Helvetica, Arial-Unicode, Arial, Sans-serif">Created by anbileru adaleru</text><text x="0" y="68.000001" fill="#000000" font-size="5px" font-weight="bold" font-family="'Helvetica Neue', Helvetica, Arial-Unicode, Arial, Sans-serif">from the Noun Project</text></svg>