<?xml version="1.0" encoding="UTF-8" standalone="no"?>
<svg
   xmlns:dc="http://purl.org/dc/elements/1.1/"
   xmlns:cc="http://creativecommons.org/ns#"
   xmlns:rdf="http://www.w3.org/1999/02/22-rdf-syntax-ns#"
   xmlns:svg="http://www.w3.org/2000/svg"
   xmlns="http://www.w3.org/2000/svg"
   xmlns:sodipodi="http://sodipodi.sourceforge.net/DTD/sodipodi-0.dtd"
   xmlns:inkscape="http://www.inkscape.org/namespaces/inkscape"
   version="1.1"
   x="0px"
   y="0px"
   viewBox="0 0 100 125"
   style="enable-background:new 0 0 100 100;"
   xml:space="preserve"
   id="svg2"
   inkscape:version="0.48.4 r9939"
   width="100%"
   height="100%"
   sodipodi:docname="noun_Fennel bulb_1026521.svg"><metadata
     id="metadata20"><rdf:RDF><cc:Work
         rdf:about=""><dc:format>image/svg+xml</dc:format><dc:type
           rdf:resource="http://purl.org/dc/dcmitype/StillImage" /></cc:Work></rdf:RDF></metadata><defs
     id="defs18" /><sodipodi:namedview
     pagecolor="#ffffff"
     bordercolor="#666666"
     borderopacity="1"
     objecttolerance="10"
     gridtolerance="10"
     guidetolerance="10"
     inkscape:pageopacity="0"
     inkscape:pageshadow="2"
     inkscape:window-width="1280"
     inkscape:window-height="957"
     id="namedview16"
     showgrid="false"
     inkscape:zoom="3.776"
     inkscape:cx="58.927625"
     inkscape:cy="64.635926"
     inkscape:window-x="-8"
     inkscape:window-y="-8"
     inkscape:window-maximized="1"
     inkscape:current-layer="svg2" /><desc
     id="desc4" /><desc
     id="desc6" /><desc
     id="desc8" /><path
     d="m 85.409425,46.290021 c 0.860226,-1.438272 1.720454,-3.007298 1.433711,-4.707074 -0.286741,-2.484291 -2.867421,-4.184069 -5.161357,-5.360838 -1.577081,-0.915265 -3.727648,-1.699777 -5.304728,-0.784512 -0.716855,0.392256 -1.146969,1.176769 -1.577081,1.830529 -1.863824,3.13805 -3.727646,6.276102 -5.59147,9.414153 -1.146969,-2.484291 0.860228,-5.230085 2.007193,-7.845128 1.29034,-2.484289 0.860228,-6.537605 -2.150564,-6.799109 -2.293936,-0.261504 -4.014389,-2.484291 -4.15776,-4.576324 -0.143371,-2.092034 0.430114,-4.314821 0.573485,-6.406855 0.14337,-2.092034 -0.286742,-4.576324 -2.293935,-5.883845 -1.863825,-1.307522 -5.30473,-0.392256 -5.448101,1.83053 -0.286742,10.067913 -2.724049,20.135826 -7.168549,29.288473 -1.0036,-3.661058 -0.430115,-7.583622 1.290338,-10.983177 0.573485,-0.915265 1.146969,-2.092033 1.003598,-3.007298 0,-0.392256 -0.430113,-0.523008 -0.716856,-0.392256 -0.573484,0.392256 -1.720454,0.261504 -2.007195,-0.392257 2.724051,-2.092034 4.587873,-5.099333 5.161356,-8.368136 -1.577081,1.569025 -3.01079,3.007299 -4.58787,4.576325 -1.863826,-1.176769 -0.143371,-3.791812 1.57708,-4.968581 1.720452,-1.176769 3.871017,-3.268803 2.437307,-4.968581 -1.003598,1.307522 -2.150565,2.615043 -3.154162,3.922564 -1.863823,-1.046017 -0.573485,-3.791811 1.29034,-4.837829 1.863822,-1.176768 4.30113,-2.353538 4.014388,-4.314821 -1.863824,0.784514 -3.584277,1.961283 -4.731244,3.399557 -1.146969,-0.915265 -0.573484,-2.876548 0.573484,-3.791813 1.146969,-1.046016 2.724049,-1.438273 4.014389,-2.3535379 1.29034,-0.9152645 2.007193,-2.6150414 1.003596,-3.7918119 2.150565,-1.3075205 3.727646,-3.2688019 4.30113,-5.62233986 -0.860225,-1.046017 -5.017982,5.09933096 -8.745632,5.75309246 0.430113,-1.0460167 1.433711,-2.6150436 -2.007193,-4.445572 1.577082,2.3535373 0.14337,5.3608373 -1.433711,7.7143746 -1.146969,-1.961282 -3.727645,-9.54490406 -3.727645,-5.4915886 0,1.1767693 0.286741,2.4842899 0.860224,3.5303066 1.146969,2.2227857 2.007195,4.5763256 2.724051,7.0606156 0.286741,0.784514 0.430112,1.569025 0.14337,2.353538 -0.286743,0.784514 -1.290339,1.30752 -2.007194,0.915265 C 47.272734,14.125 45.982396,10.594694 43.83183,7.4566414 c -0.573485,3.5303086 0.430112,7.1913686 2.86742,9.9371626 1.29034,1.569025 3.154162,3.922564 1.720452,5.491589 -1.146968,-1.569025 -2.437306,-3.007298 -4.01439,-4.31482 -0.716853,1.438275 0.860228,3.007299 2.150567,4.053315 1.290339,1.17677 2.580677,3.007301 1.290339,4.184068 -1.146968,-0.915264 -2.293935,-1.961282 -3.297533,-2.876546 -1.29034,2.745794 5.161357,4.576324 4.157758,7.452872 -1.146967,-0.392257 -2.150564,-0.784514 -3.297532,-1.176771 2.437307,2.092035 3.727645,5.230086 3.154162,8.237384 C 44.978797,37.398878 43.83183,33.345563 43.258345,29.815256 42.398119,24.58517 41.537894,19.355086 40.677667,14.125 c -0.286742,-1.830529 -2.007193,-3.530306 -4.014388,-3.922564 -2.007195,-0.3922559 -4.301132,0.523009 -5.4481,2.092035 -1.290338,1.830529 -1.003596,4.184068 -0.716853,6.276102 1.720451,12.029195 4.874615,23.796885 9.032375,35.172321 -3.584278,-2.092034 -5.304729,-6.14535 -6.595069,-9.937162 -2.580678,-7.060614 -5.161357,-13.990476 -7.742036,-21.051091 -0.860224,-2.092034 -4.157759,-1.699778 -6.308324,-0.915264 -2.150565,0.784511 -4.587874,1.699776 -6.164953,3.268803 -1.72045,1.569024 -2.7240497,4.314819 -1.43371,6.276102 3.297532,5.230084 5.734841,10.852425 7.311921,16.73627 1.146969,4.445573 3.440905,9.152651 2.72405,13.990478 -0.286743,2.092034 -1.146969,4.053316 -1.863825,6.0146 -2.724048,7.060614 -5.017985,14.251979 -5.448098,21.704852 -0.430112,7.452871 1.14697,15.167258 5.734842,21.443358 6.451695,8.89113 18.49486,13.85974 30.251284,13.99046 5.73484,0.13076 11.613053,-0.78451 16.77441,-3.00728 7.455293,-3.13805 13.333505,-9.15266 16.200926,-16.21327 2.86742,-7.06062 2.437306,-15.167252 -1.003598,-21.966362 -1.57708,-3.138051 -3.871018,-6.14535 -4.444502,-9.544906 -0.573483,-2.745794 0,-5.622341 0.716856,-8.237384 1.290337,-6.929862 3.871016,-13.598222 7.16855,-20.005077 z M 52.864205,8.1104028 C 54.011172,7.1951387 55.588251,6.9336336 57.021966,7.1951387 55.731623,8.764163 54.011172,9.8101801 52.147349,10.463941 51.430493,9.8101801 52.003978,8.764163 52.864205,8.1104028 z M 63.330289,34.260827 c 0.286742,-1.307521 2.724048,-1.307521 3.584275,-0.261503 0.860226,1.176769 0.716855,2.615042 0.430112,4.053315 -0.430112,1.699777 -0.716856,3.399555 -1.003597,5.099333 -0.430111,2.484289 -1.003596,4.96858 -1.577081,7.583623 -1.290338,5.360838 -3.01079,10.590922 -5.161355,15.690255 -1.720454,0.392256 -3.440906,-1.438273 -2.867421,-2.876546 1.003596,-2.615043 1.57708,-5.360837 2.150565,-8.106631 1.43371,-7.060618 2.867421,-14.121231 4.444502,-21.181846 z M 50.426895,56.619439 c 0.286745,-2.48429 1.433712,-4.968579 2.293938,-7.322117 4.15776,-10.460171 6.738438,-21.443348 7.455292,-32.426527 0.860227,-0.392256 2.007194,0.261505 2.293936,1.046018 0.430114,0.784511 0.286744,1.699779 0.143373,2.615042 -1.863823,14.774989 -4.731245,29.419227 -8.745632,43.801962 -0.430114,-0.261504 -1.003597,-0.392256 -1.43371,-0.523008 -1.720452,-1.83053 -2.293938,-4.576325 -2.007197,-7.19137 z M 45.408911,38.444895 c 0.716856,-0.392256 1.720452,0 2.007194,0.653761 0.860228,3.268802 1.290338,8.368135 0.860228,11.506186 0,0 -3.154163,-5.753093 -3.440906,-10.329417 -0.143371,-0.915265 -0.143371,-1.438274 0.573484,-1.83053 z M 33.509116,14.778762 c -0.28674,-1.176771 0.286743,-3.0073 1.577082,-2.615044 0.573482,0.130753 0.860225,0.784514 1.003596,1.30752 4.444503,12.944462 3.871018,27.065691 9.462489,39.617897 1.146967,2.61504 2.580677,5.230082 3.01079,8.10663 -2.007194,-0.130751 -3.871017,-1.438273 -5.017985,-3.007298 -1.146969,-1.569028 -1.577081,-3.530309 -2.007194,-5.360838 -0.716857,-2.615043 -1.29034,-5.230085 -2.007193,-7.97588 -2.293938,-9.937161 -4.15776,-20.005075 -6.021585,-30.072987 z m 44.875128,70.7369 C 68.061531,83.946635 58.168931,79.893321 50.283526,73.617218 c -0.860228,1.438273 0.716854,3.13805 2.150566,4.184067 7.168551,5.099333 15.627439,8.498888 24.516444,10.067915 2.007193,0.392255 3.584275,2.222786 4.014388,4.053315 0.430114,1.830529 0,3.922565 -0.430113,5.753095 -0.430113,1.830529 -0.716856,3.66105 -1.146968,5.49159 -0.286743,1.30752 -0.860227,3.00729 -2.293936,3.2688 -0.860226,0.13074 -1.720454,-0.26151 -2.437307,-0.65376 -11.18294,-5.49159 -20.788798,-13.336717 -27.95735,-22.881622 -1.57708,-1.961281 -3.297534,-4.314821 -6.021583,-4.184069 8.028776,12.421454 20.071944,22.750871 34.122303,29.288481 0.716856,0.39225 1.577081,0.91526 1.433711,1.56903 -0.143372,0.2615 -0.286743,0.523 -0.430115,0.7845 -1.290337,1.56905 -2.724049,3.26881 -4.014388,4.83785 -1.003598,1.17676 -2.007194,2.35352 -3.440902,2.74577 -1.720456,0.52302 -3.584278,-0.13074 -5.161357,-0.91525 C 52.864205,112.05833 46.125767,102.64418 40.821037,93.230036 37.236763,86.692429 34.082601,79.893321 31.501921,72.832705 30.928438,71.132927 29.494727,69.040894 27.630906,69.43315 c 3.727644,9.806409 7.455292,19.74357 13.046761,28.765467 5.734841,9.021893 13.476876,17.128533 23.656218,21.835603 -3.871018,1.43828 -8.028778,3.00731 -12.186536,2.35354 -3.010793,-0.52302 -5.59147,-2.09203 -7.885407,-3.92256 C 34.225972,110.62009 29.351356,98.852379 25.193596,87.346191 24.620111,85.777165 23.759887,83.946635 22.039435,83.685131 24.476743,98.852379 33.222376,112.97361 46.125767,122.78002 34.656084,121.21099 24.620111,113.62737 20.03224,103.95171 15.444368,94.276052 16.161223,82.769866 20.892466,73.224961 23.759887,67.471867 24.763483,60.803509 23.616515,54.527405 22.469548,48.120552 19.315386,41.975203 16.304594,36.091358 15.157627,33.868571 14.010657,31.515033 14.44077,29.161494 c 0.430113,-2.353538 2.867421,-4.707077 5.4481,-4.053314 2.437306,0.65376 3.297533,3.268802 4.014389,5.360836 1.57708,5.49159 3.727647,10.852426 6.308324,15.951758 1.57708,3.007299 3.297533,6.014598 5.73484,8.62964 5.878214,6.406856 14.767217,9.675659 22.939364,13.336718 8.458889,3.922564 16.917779,9.15265 19.498457,17.12853 z M 71.93255,74.009475 c -2.437307,-2.35354 -5.4481,-4.314821 -8.745631,-5.49159 -0.860228,-0.261505 -0.860228,-1.438274 -0.716858,-2.222787 0.860228,-4.837828 3.584276,-9.15265 6.164955,-13.467469 2.72405,-4.576325 5.4481,-9.021897 8.31552,-13.598221 0.860226,-1.438273 3.440905,-1.569025 4.874613,-0.523009 1.433711,1.046017 1.863824,3.0073 1.577083,4.707077 -0.286743,1.699776 -1.146969,3.268803 -2.007194,4.707076 -4.587874,8.237384 -7.742036,16.997777 -9.462488,25.888923 z"
     id="path10"
     inkscape:connector-curvature="0" /><path
     style="fill:#afe9af;fill-opacity:1;fill-rule:nonzero;stroke:#ffffff;stroke-width:5.12788248;stroke-linecap:round;stroke-linejoin:miter;stroke-miterlimit:4;stroke-opacity:0.49411765;stroke-dasharray:none"
     d="m 40.756089,121.29091 c -10.375061,-3.48582 -18.234788,-11.08079 -21.816324,-21.08143 -1.220177,-3.407071 -1.403135,-4.747247 -1.4039,-10.283738 -9.58e-4,-6.912187 0.325262,-8.325196 4.239641,-18.363821 1.699916,-4.35952 2.042187,-5.92945 2.24953,-10.318127 0.344884,-7.299933 -0.889929,-11.930751 -5.932195,-22.247048 -3.508951,-7.179184 -3.822882,-8.235374 -3.067902,-10.321641 0.815469,-2.253418 3.424829,-3.824355 5.04528,-3.037455 1.833901,0.890553 2.324672,1.78764 4.89726,8.95178 2.788156,7.764445 7.24215,16.448862 10.297331,20.077776 3.088847,3.668902 8.581464,7.179108 18.139269,11.592388 10.67432,4.928826 15.228423,7.581978 18.897745,11.009533 2.314598,2.162093 5.534076,6.646254 5.534076,7.707995 0,0.124189 -2.23511,-0.319152 -4.966911,-0.98522 -6.105442,-1.488625 -14.600875,-5.151841 -19.001638,-8.193472 -1.812509,-1.252735 -3.443534,-2.277701 -3.624499,-2.277701 -0.580954,0 -0.317188,2.177659 0.359248,2.965968 1.188029,1.384513 6.564982,4.735602 10.493278,6.539743 4.626847,2.124959 8.281924,3.381224 12.981779,4.461879 3.870903,0.890049 5.598721,2.061665 6.430642,4.36054 0.972879,2.6884 -1.886436,14.481891 -3.511116,14.481891 -0.758665,0 -5.309335,-2.40691 -9.613499,-5.08471 C 61.163955,97.376802 53.490673,90.670907 48.86462,85.062155 44.562384,79.846008 43.72788,79.103542 41.63072,78.626052 l -1.571067,-0.357703 1.252552,1.911081 c 2.791246,4.258743 7.432179,9.50722 12.308368,13.91966 5.858432,5.301262 10.595501,8.64934 17.369046,12.27612 2.584137,1.38365 4.696994,2.76605 4.695242,3.07201 -0.0067,1.14739 -6.189122,7.86153 -7.516457,8.16275 C 63.701195,118.62376 53.627142,111.3303 47.061461,102.32886 43.45865,97.389474 38.007278,87.527075 35.198155,80.866256 31.277031,71.568734 30.454585,70.018395 29.157479,69.479413 c -0.695024,-0.288804 -1.394865,-0.405459 -1.555201,-0.259234 -0.518512,0.472875 6.204084,16.597947 9.691676,23.246822 6.019475,11.475749 13.578965,20.072359 22.124695,25.160059 2.39161,1.42384 3.740501,2.50311 3.307692,2.64654 -6.404092,2.12221 -10.095815,2.30319 -13.782324,0.67566 -1.310535,-0.57859 -3.892766,-2.34014 -5.738287,-3.91461 -6.221455,-5.30762 -11.24611,-13.18864 -15.792593,-24.770209 -2.545938,-6.485436 -3.480125,-8.239568 -4.596089,-8.630109 -1.188181,-0.415821 -1.0682,1.169152 0.507063,6.698378 3.15725,11.08206 10.453305,22.46074 18.971505,29.58727 2.681525,2.24343 2.236599,2.63965 -1.539527,1.37093 z"
     id="path3015"
     inkscape:connector-curvature="0" /><path
     style="fill:#37c871;fill-opacity:1;fill-rule:nonzero;stroke:#ffffff;stroke-width:5.12788248;stroke-linecap:round;stroke-linejoin:miter;stroke-miterlimit:4;stroke-opacity:0.49411765;stroke-dasharray:none"
     d="M 70.409517,72.384912 C 69.748291,71.743019 67.773044,70.468881 66.020081,69.553494 62.346654,67.635258 62.220313,67.22645 63.897608,62.685706 65.305113,58.875329 75.557335,41.402897 77.725641,39.11917 c 1.13188,-1.192129 2.610826,-1.069524 4.161889,0.34502 1.973931,1.800194 1.675679,3.546581 -1.83081,10.720066 -3.812842,7.800223 -5.126308,11.191308 -7.005939,18.087808 l -1.439037,5.279926 -1.202227,-1.167078 0,0 z"
     id="path3017"
     inkscape:connector-curvature="0" /><path
     style="fill:#00aa44;fill-opacity:1;fill-rule:nonzero;stroke:#ffffff;stroke-width:5.12788248;stroke-linecap:round;stroke-linejoin:miter;stroke-miterlimit:4;stroke-opacity:0.49411765;stroke-dasharray:none"
     d="m 51.72026,62.135162 c -1.545166,-2.714461 -1.141422,-6.245709 1.581714,-13.83408 3.91778,-10.917403 6.208752,-20.539581 6.937374,-29.137262 0.185556,-2.189556 1.671554,-2.376757 1.943627,-0.244851 0.358435,2.80863 -2.737957,21.296025 -5.577261,33.299727 -2.972322,12.566058 -3.160168,12.947351 -4.885454,9.916466 z"
     id="path3019"
     inkscape:connector-curvature="0" /><path
     style="fill:#00aa44;fill-opacity:1;fill-rule:nonzero;stroke:#ffffff;stroke-width:5.12788248;stroke-linecap:round;stroke-linejoin:miter;stroke-miterlimit:4;stroke-opacity:0.49411765;stroke-dasharray:none"
     d="m 57.73814,65.405668 c -1.028801,-0.93825 -1.028608,-0.926887 -0.06672,-3.916179 0.427401,-1.32823 1.908829,-7.924111 3.292064,-14.657514 1.383234,-6.7334 2.817604,-12.539514 3.187485,-12.902479 0.52049,-0.51075 0.929443,-0.53453 1.809085,-0.105191 1.520543,0.742145 1.482911,2.629497 -0.21655,10.86101 -1.945837,9.424838 -5.738799,21.48989 -6.755908,21.48989 -0.223118,0 -0.785381,-0.34629 -1.249469,-0.769532 z"
     id="path3021"
     inkscape:connector-curvature="0" /><path
     style="fill:#00aa00;fill-opacity:1;fill-rule:nonzero;stroke:#ffffff;stroke-width:5.12788248;stroke-linecap:round;stroke-linejoin:miter;stroke-miterlimit:4;stroke-opacity:0.49411765;stroke-dasharray:none"
     d="M 46.064811,59.951807 C 43.106994,58.278264 41.741893,54.214321 37.874429,35.568834 33.573841,14.835191 33.143975,11.281392 35.117298,12.77496 c 1.017974,0.770481 2.530312,6.881191 4.83214,19.524601 2.19281,12.044593 2.901361,14.758463 5.52022,21.14339 3.208919,7.823532 3.224753,7.996689 0.595153,6.508856 l 0,0 z"
     id="path3023"
     inkscape:connector-curvature="0" /><path
     style="fill:#00aa00;fill-opacity:1;fill-rule:nonzero;stroke:#ffffff;stroke-width:1.81298029;stroke-linecap:round;stroke-linejoin:miter;stroke-miterlimit:4;stroke-opacity:0.49411765;stroke-dasharray:none"
     d="m 52.638462,63.369168 c -0.104994,-0.119034 -0.450617,-0.689299 -0.768055,-1.267262 -1.547799,-2.818084 -1.238449,-5.621931 1.511718,-13.701654 4.099091,-12.042736 5.872464,-19.307699 6.816602,-27.925469 0.305526,-2.788756 0.899866,-3.661786 1.623754,-2.38515 0.43927,0.774688 0.276803,3.292832 -0.589536,9.137445 -1.361601,9.185808 -3.376999,19.444238 -5.621583,28.613995 -1.711698,6.992777 -2.247752,8.350196 -2.9729,7.528095 z"
     id="path3029"
     inkscape:connector-curvature="0" /><path
     style="fill:#008000;fill-opacity:1;fill-rule:nonzero;stroke:#ffffff;stroke-width:1.81298029;stroke-linecap:round;stroke-linejoin:miter;stroke-miterlimit:4;stroke-opacity:0.49411765;stroke-dasharray:none"
     d="m 57.909232,65.383366 c -0.867169,-0.71448 -0.965087,-1.273227 -0.484001,-2.761886 0.476827,-1.475481 1.380638,-5.36744 3.51181,-15.1224 2.793682,-12.787454 3.106247,-13.865978 4.018459,-13.865978 0.624855,0 1.458519,0.538757 1.725475,1.115093 0.845708,1.825812 -0.99803,11.407087 -4.433106,23.037344 -1.390158,4.706714 -2.810242,8.223948 -3.320414,8.223948 -0.142068,0 -0.600264,-0.281755 -1.018223,-0.626121 l 0,0 z"
     id="path3031"
     inkscape:connector-curvature="0" /><path
     style="fill:#008000;fill-opacity:1;fill-rule:nonzero;stroke:#ffffff;stroke-width:1.81298029;stroke-linecap:round;stroke-linejoin:miter;stroke-miterlimit:4;stroke-opacity:0.49411765;stroke-dasharray:none"
     d="m 46.82233,60.271176 c -2.360918,-1.135465 -3.751924,-3.559239 -5.332528,-9.291739 -1.340033,-4.859993 -5.732087,-25.687914 -6.823938,-32.360373 -0.498345,-3.045448 -0.636926,-5.830909 -0.299563,-6.021062 0.37356,-0.210553 1.095291,0.739461 1.585429,2.086902 0.781829,2.149326 1.892409,7.137267 3.750017,16.842393 2.61288,13.651059 3.022566,15.208603 5.939453,22.580655 2.120382,5.358979 2.496897,6.549977 2.063312,6.526674 -0.07831,-0.0042 -0.475296,-0.167762 -0.882182,-0.36345 z"
     id="path3033"
     inkscape:connector-curvature="0" /><path
     style="fill:#008000;fill-opacity:1;fill-rule:nonzero;stroke:#ffffff;stroke-width:1.81298029;stroke-linecap:round;stroke-linejoin:miter;stroke-miterlimit:4;stroke-opacity:0.49411765;stroke-dasharray:none"
     d="m 67.916158,67.668009 c -1.021815,-0.595303 -1.949421,-1.165879 -2.061343,-1.267953 -0.253921,-0.231569 0.444283,-2.431799 1.442538,-4.545827 1.612491,-3.414804 8.730091,-15.604959 11.251105,-19.269517 1.00675,-1.463415 1.061804,-1.511554 1.40488,-1.228401 0.196389,0.162087 0.357069,0.473384 0.357069,0.691771 0,0.759774 -0.951373,3.133815 -3.047158,7.603844 -3.979926,8.488636 -4.86689,10.818269 -7.035321,18.478475 -0.1011,0.357092 -0.244571,0.642671 -0.318858,0.634617 -0.07427,-0.0081 -0.971096,-0.501709 -1.992912,-1.097009 l 0,0 z"
     id="path3035"
     inkscape:connector-curvature="0" /></svg>